<svg width="415" height="123" viewBox="0 0 415 123" fill="none" xmlns="http://www.w3.org/2000/svg">
<path d="M17.584 50.736L20.912 51.76L45.104 44.08L46.256 27.184C46.256 25.52 45.744 23.984 44.592 22.704C42.8 20.784 41.264 18.48 40.112 16.048C39.472 14.64 39.472 13.232 40.112 11.696C41.008 8.24 42.672 5.03999 44.848 1.96799C45.744 0.943993 46.896 0.687996 48.048 0.815994C54.32 3.12 60.336 5.67999 65.968 8.368C67.632 9.26399 68.4 10.672 68.144 12.592C66.992 21.296 65.456 29.744 63.664 38.064C70.704 35.76 78.384 33.712 86.192 32.304C87.6 31.92 89.264 32.304 90.928 33.328C96.56 37.04 100.4 41.904 102.576 48.304C103.216 50.224 102.576 51.76 100.656 52.912C98.352 53.808 96.56 54.192 95.024 54.448C93.104 55.088 91.44 54.96 89.904 54.192L86.064 53.552C83.632 52.912 81.2 52.912 79.024 53.68C72.624 54.96 66.352 56.88 60.08 59.312C78.768 76.976 99.376 93.488 122.16 108.848C122.8 109.36 123.184 110 123.184 110.64C123.184 111.28 122.8 111.92 122.16 112.432L110.512 120.752C109.232 121.904 107.952 122.032 106.672 121.392C100.272 119.344 93.872 116.4 87.472 112.304C83.632 109.744 80.432 106.672 77.744 102.832C71.088 93.232 63.024 85.296 53.296 78.896C52.272 82.48 50.864 86.064 48.944 90.032L57.136 95.792C58.544 96.688 59.312 97.712 59.952 99.376C60.72 101.68 61.104 103.728 61.104 105.776C61.104 107.184 60.848 108.208 60.336 108.848C59.696 110 58.8 111.28 57.392 112.688C55.472 113.968 53.68 113.968 52.016 112.432C48.688 109.232 44.72 106.16 40.496 102.832C36.656 107.056 31.92 110 26.544 111.92C23.856 112.816 21.296 112.944 18.352 112.304C12.208 110.768 6.576 107.824 1.456 103.472C0.816 102.576 0.688 101.808 0.688 100.656L1.328 98.608C3.632 98.608 4.784 97.968 4.784 96.816C5.552 97.84 6.704 98.352 8.496 98.48C11.824 99.12 15.28 98.992 18.608 98.352C20.656 97.84 22.32 96.944 23.856 95.664C32.304 87.088 38.064 77.232 41.264 65.968L38.96 66.608C37.168 66.992 35.504 67.12 33.84 66.864L15.408 63.408C14.512 63.024 13.872 62.64 13.488 62C13.104 60.976 13.104 60.208 13.36 59.568C14 56.496 15.408 53.552 17.584 50.736ZM175.664 93.36C175.536 93.36 177.2 93.104 180.528 92.72C183.856 92.336 185.776 92.208 186.16 92.08L185.648 84.272C182.064 87.088 178.608 90.288 175.664 93.36ZM174.384 68.656C174.64 74.544 174.768 81.072 174.768 88.24C177.2 84.016 180.656 79.792 185.264 75.44L185.008 68.272L181.04 68.784C177.584 68.784 175.28 68.784 174.384 68.656ZM166.704 38.576L170.8 44.208C171.952 45.232 172.464 46.64 172.592 48.304C172.592 51.888 172.976 55.472 173.744 59.312C177.712 57.776 181.552 56.496 185.392 55.472L186.032 46.768C184.752 43.184 184.112 39.6 183.984 36.272C182.064 37.04 179.76 37.552 177.2 37.808L166.704 38.576ZM202.16 70.96C201.52 77.616 201.136 83.888 200.752 89.648C204.592 88.496 208.688 87.856 212.784 87.728L217.776 89.392C219.824 79.28 221.232 69.552 222.256 59.824C215.088 62.256 208.432 65.84 202.16 70.96ZM194.608 33.456C198.32 35.376 201.904 37.808 205.744 40.88C206.512 41.776 206.768 42.8 206.64 43.824C206.512 44.592 206.384 45.872 206.128 47.664C205.744 49.456 205.616 50.352 205.488 50.48L214.192 49.712C215.472 49.072 216.88 49.072 218.032 49.584C220.336 50.352 222 51.376 223.408 52.656L226.992 28.72L222.128 26.544C220.976 25.904 219.824 25.648 218.288 25.904C209.712 28.976 201.776 31.664 194.608 33.456ZM161.84 32.048L164.528 29.872L228.016 15.408C230.704 14.768 232.88 15.152 234.928 16.304C243.248 21.68 249.648 28.464 254.128 36.912C254.768 38.704 254.64 40.368 253.616 42.032C252.08 44.208 251.056 46.896 250.672 49.84C248.496 67.248 245.552 84.144 241.456 100.784C241.072 102.832 240.048 104.24 238.128 105.136L234.672 107.44C231.728 109.36 229.168 109.232 226.48 107.184L216.112 102.704C202.416 102.576 188.72 103.216 175.28 104.624C174.896 106.16 173.744 107.312 171.952 108.336C167.6 106.032 164.912 102.32 163.632 97.584C160.816 90.032 159.024 82.096 158.384 73.776C158 68.912 157.872 64.176 158.128 59.44C158.256 56.88 157.36 54.448 155.44 52.528C152.496 49.072 150.832 45.232 149.936 40.88C149.424 38.192 149.552 35.76 150.448 33.072C151.088 31.408 152.112 28.464 153.776 24.496L155.44 26.16L161.84 32.048ZM325.168 9.77599C330.16 11.568 334.384 14.512 337.456 18.352C338.48 19.504 338.992 20.656 338.992 21.552C342.96 20.912 349.616 20.144 358.96 18.992C360.112 16.048 360.88 13.232 361.264 10.672C361.648 9.392 361.648 8.24 361.008 7.216L359.984 4.656L364.72 2.09599C366.256 1.328 367.792 1.2 369.712 1.84C373.552 3.37599 376.752 5.808 379.312 8.88C380.976 10.928 381.232 13.104 380.08 15.792L379.312 17.328C380.72 17.2 383.28 16.944 387.248 16.56C388.656 16.048 390.064 16.432 391.216 17.456C392.88 18.608 394.288 20.016 395.952 21.808C396.848 22.704 396.976 23.856 396.208 25.136L394.16 27.44C393.392 28.336 392.368 28.592 390.96 28.336C383.536 27.824 377.008 27.824 370.864 28.208C364.336 34.736 357.296 39.344 350 42.288C350 38.832 349.36 37.936 348.208 39.472C350.896 35.76 352.944 32.432 354.608 29.232C349.36 29.488 344.368 30.256 339.76 31.408C339.632 33.712 339.12 36.016 338.096 38.064C336.944 40.368 335.152 41.904 332.848 42.672C330.288 41.264 328.368 39.344 326.704 36.784C326.192 36.144 325.808 35.248 325.424 34.352L319.664 35.632C318.384 36.016 316.848 36.016 315.312 35.632L305.84 33.2H305.072C304.432 32.304 304.304 31.408 304.56 30.768L304.816 29.872C305.456 28.336 306.48 27.568 307.76 27.568C313.52 26.288 318.768 25.264 323.504 24.368C323.376 22.96 323.76 21.68 324.4 20.016C325.68 16.816 325.936 13.488 325.168 9.77599ZM301.616 58.288L309.68 55.728C311.472 55.088 313.136 55.088 314.544 55.728C317.36 56.88 319.536 58.544 321.328 60.72C321.968 61.744 322.096 62.896 321.456 64.048C320.048 66.224 318.768 68.016 317.36 69.296C310.96 75.312 306.864 82.096 304.816 89.776C311.088 85.936 317.36 82.48 323.504 79.664C323.632 72.496 324.272 65.584 325.168 59.056C325.296 57.392 324.912 55.984 324.016 54.832L321.968 52.016C321.328 51.12 321.2 50.352 321.584 49.712C321.712 48.816 322.224 48.304 322.992 48.048L327.344 44.336C328.624 43.312 329.904 43.056 331.568 43.824C336.304 46.384 340.528 49.584 344.112 53.68C345.52 55.472 345.776 57.392 344.88 59.312C341.68 64.944 339.76 70.576 338.864 76.336C345.52 73.264 353.072 70.448 361.648 67.888L361.904 61.616C362.032 58.8 361.52 55.856 360.112 53.296L357.68 49.584C357.168 48.304 357.168 47.024 357.68 45.744C359.088 43.696 360.88 41.52 363.184 38.96C364.464 37.68 365.872 37.424 367.408 37.936C372.784 39.6 377.392 42.544 381.104 46.384C382.768 47.792 383.152 49.456 382.384 51.632C381.36 55.216 380.72 58.16 380.464 60.464L389.552 57.392C391.472 56.752 393.136 56.752 394.544 57.392C397.488 58.928 399.792 60.72 401.968 62.896C402.864 63.664 403.12 64.688 402.864 65.84L402.352 68.656C401.968 70.192 400.944 71.088 399.28 71.344C393.008 72.624 385.328 74.672 376.624 77.232C374.96 85.168 372.656 92.336 369.84 99.12C377.904 97.712 385.84 95.92 393.392 93.744C394.672 93.104 396.208 93.104 397.616 93.744C403.504 96.176 408.496 99.504 412.72 103.984C413.872 104.88 414.256 106.288 413.616 107.824C412.464 109.744 410.928 111.792 409.392 113.84C407.728 115.376 406.064 115.76 404.272 114.864C399.28 113.2 396.208 112.176 394.928 111.792C390.32 110.128 385.584 109.488 380.464 109.744C371.888 110.128 363.312 111.664 355.248 113.968C353.968 114.352 352.688 114.224 351.28 113.84L346.288 112.432C344.752 112.048 343.984 111.024 344.368 109.488L344.496 106.544L346.032 103.984L353.328 102.448C356.272 95.408 358.448 88.368 359.856 81.2C358.32 81.84 356.528 81.968 354.352 81.712C348.976 80.944 343.6 80.688 338.48 80.944C337.712 90.672 337.456 100.912 337.712 111.536C337.712 113.072 337.328 114.608 336.432 115.76L333.232 119.728C332.08 121.392 330.544 121.52 329.008 120.368C326.576 118.448 324.528 116.4 322.736 113.968C321.584 112.688 321.456 111.408 322.224 109.872C322.736 108.208 322.992 106.288 322.864 103.984L322.992 91.312C315.312 97.712 308.912 103.6 303.536 108.976C303.152 109.488 302.512 109.744 301.616 109.744C300.976 109.744 300.464 109.488 299.824 108.976C296.752 105.392 294.704 101.424 293.68 96.816C293.04 95.28 293.424 93.872 294.96 92.72C296.624 91.184 298.032 89.264 299.44 87.088C303.28 81.2 306.352 74.672 308.656 67.376C309.04 66.48 308.656 65.712 307.76 65.328C304.816 63.792 302.896 61.36 301.616 58.288Z" fill="white"/>
</svg>
