<svg width="93" height="152" viewBox="0 0 93 152" fill="none" xmlns="http://www.w3.org/2000/svg">
<path fill-rule="evenodd" clip-rule="evenodd" d="M23 0H0V152H23V0ZM9.496 11.432C9.496 11.4747 9.52267 11.496 9.576 11.496C9.62933 11.496 9.70933 11.4587 9.816 11.384C10.8187 10.6053 11.8213 10.152 12.824 10.024C13.208 9.97067 13.464 9.912 13.592 9.848C13.7307 9.77333 13.8 9.65067 13.8 9.48C13.8 9.27733 13.7147 9.08 13.544 8.888C13.3733 8.696 13.1867 8.568 12.984 8.504C12.888 8.46133 12.7547 8.44 12.584 8.44C12.424 8.44 12.152 8.46133 11.768 8.504C11.3947 8.55733 11.0747 8.584 10.808 8.584C10.4453 8.584 10.0667 8.54667 9.672 8.472C9.27733 8.38667 8.96267 8.28533 8.728 8.168C8.55733 8.08267 8.41867 8.008 8.312 7.944L8.232 7.912C8.21067 7.912 8.2 7.93867 8.2 7.992C8.2 8.10933 8.264 8.248 8.392 8.408C8.57333 8.64267 8.83467 8.888 9.176 9.144C9.51733 9.38933 9.896 9.56 10.312 9.656C10.792 9.76267 11.032 9.85333 11.032 9.928C11.032 9.992 10.7867 10.2267 10.296 10.632C9.86933 11.0053 9.63467 11.2133 9.592 11.256C9.528 11.32 9.496 11.3787 9.496 11.432ZM9.096 18.712C9.77867 18.8507 10.52 18.92 11.32 18.92C11.9067 18.92 12.4667 18.888 13 18.824C13.5333 18.76 13.96 18.68 14.28 18.584C14.856 18.4027 15.144 18.1413 15.144 17.8C15.144 17.5867 15.048 17.416 14.856 17.288C14.6747 17.1493 14.4293 17.08 14.12 17.08C14.024 17.08 13.688 17.1227 13.112 17.208C12.088 17.4 11.1973 17.496 10.44 17.496C9.68267 17.496 9.03733 17.4053 8.504 17.224C7.71467 16.9467 7.32 16.4933 7.32 15.864C7.32 15.8 7.32533 15.736 7.336 15.672C7.34667 15.608 7.352 15.544 7.352 15.48C7.352 15.32 7.31467 15.24 7.24 15.24C7.15467 15.24 7.05333 15.3947 6.936 15.704C6.872 15.928 6.84 16.184 6.84 16.472C6.84 17.1227 7.06933 17.6347 7.528 18.008C7.90133 18.3387 8.424 18.5733 9.096 18.712ZM14.008 30.376C13.1013 30.0027 12.1893 29.816 11.272 29.816C10.1947 29.816 9.15467 30.0613 8.152 30.552C7.16 31.0427 6.34933 31.7413 5.72 32.648C5.10133 33.5547 4.792 34.5947 4.792 35.768C4.792 36.4187 4.89333 37.0587 5.096 37.688C5.30933 38.3173 5.58667 38.8293 5.928 39.224C6.28 39.6187 6.65333 39.816 7.048 39.816C7.31467 39.816 7.66133 39.6347 8.088 39.272C8.51467 38.9093 8.952 38.3867 9.4 37.704C9.85867 37.0213 10.2587 36.2267 10.6 35.32C10.792 34.8293 10.936 34.3387 11.032 33.848C11.128 33.3467 11.176 32.8933 11.176 32.488C11.176 32.2213 11.1493 31.928 11.096 31.608C11.0427 31.288 10.968 30.9893 10.872 30.712C10.8293 30.5733 10.904 30.4453 11.096 30.328C11.8107 30.328 12.5307 30.4827 13.256 30.792C13.9813 31.1013 14.5947 31.624 15.096 32.36C15.5973 33.0853 15.848 34.04 15.848 35.224C15.848 36.856 15.2773 38.1413 14.136 39.08C13.0053 40.008 11.544 40.6213 9.752 40.92C9.61333 40.9413 9.47467 40.968 9.336 41C9.19733 41.0427 9.128 41.0853 9.128 41.128C9.128 41.1493 9.16 41.1653 9.224 41.176C9.288 41.1973 9.35733 41.208 9.432 41.208C10.392 41.208 11.4587 41.0533 12.632 40.744C13.816 40.424 14.872 39.8267 15.8 38.952C16.728 38.0667 17.192 36.8507 17.192 35.304C17.192 34.0347 16.888 32.9893 16.28 32.168C15.672 31.3467 14.9147 30.7493 14.008 30.376ZM10.536 30.664C10.6 30.9307 10.632 31.2347 10.632 31.576C10.632 32.3653 10.5093 33.1387 10.264 33.896C10.0187 34.6427 9.608 35.464 9.032 36.36C8.70133 36.872 8.35467 37.32 7.992 37.704C7.64 38.088 7.336 38.28 7.08 38.28C6.96267 38.28 6.80267 38.1787 6.6 37.976C6.408 37.7733 6.232 37.464 6.072 37.048C5.92267 36.6213 5.848 36.104 5.848 35.496C5.848 34.6427 6.04 33.8587 6.424 33.144C6.808 32.4187 7.32533 31.8213 7.976 31.352C8.62667 30.872 9.34667 30.5573 10.136 30.408C10.36 30.376 10.4933 30.4613 10.536 30.664ZM17.56 57.48C17.56 57.1707 17.4107 56.904 17.112 56.68C16.408 56.1893 15.88 55.768 15.528 55.416C15.1867 55.064 14.92 54.6587 14.728 54.2C14.5467 53.7413 14.4133 53.1227 14.328 52.344C14.2853 51.8853 14.2213 51.5547 14.136 51.352C14.0507 51.1493 13.8907 51.048 13.656 51.048C13.5067 51.048 13.3893 51.1173 13.304 51.256C13.2187 51.384 13.176 51.544 13.176 51.736C13.176 51.8853 13.224 52.2107 13.32 52.712C13.416 53.2453 13.4693 53.5333 13.48 53.576C13.6507 54.6427 13.736 55.6507 13.736 56.6C13.736 58.3707 13.4107 59.7413 12.76 60.712C12.12 61.672 11.16 62.152 9.88 62.152C8.93067 62.152 8.216 61.8533 7.736 61.256C7.256 60.6587 7.016 59.8853 7.016 58.936C7.016 57.9973 7.24533 57.016 7.704 55.992C8.17333 54.9573 8.81867 54.0667 9.64 53.32C9.736 53.2347 9.90133 53.128 10.136 53C10.1573 52.9787 10.2107 52.9467 10.296 52.904C10.3813 52.8507 10.456 52.7973 10.52 52.744C10.5947 52.68 10.632 52.6107 10.632 52.536C10.632 52.3867 10.52 52.2427 10.296 52.104C10.0827 51.9653 9.82667 51.896 9.528 51.896C9.464 51.896 9.37867 51.928 9.272 51.992C9.176 52.0453 9.07467 52.1093 8.968 52.184C8.63733 52.408 8.312 52.5893 7.992 52.728C7.672 52.8667 7.29333 52.936 6.856 52.936C6.64267 52.936 6.44533 52.9147 6.264 52.872C6.09333 52.8187 5.98667 52.7867 5.944 52.776C5.89067 52.7653 5.848 52.7547 5.816 52.744C5.79467 52.7227 5.77333 52.712 5.752 52.712C5.73067 52.712 5.72 52.7227 5.72 52.744C5.72 52.8293 5.784 52.9733 5.912 53.176C6.04 53.3787 6.17867 53.5333 6.328 53.64C6.63733 53.8427 6.94133 53.944 7.24 53.944C7.496 53.944 7.76267 53.896 8.04 53.8C8.12533 53.768 8.18933 53.752 8.232 53.752C8.27467 53.752 8.296 53.7733 8.296 53.816C8.296 53.848 8.264 53.912 8.2 54.008C6.67467 56.0133 5.912 57.8213 5.912 59.432C5.912 60.2107 6.07733 60.904 6.408 61.512C6.73867 62.1093 7.20267 62.5787 7.8 62.92C8.39733 63.2507 9.08533 63.416 9.864 63.416C10.9413 63.416 11.8107 63.1227 12.472 62.536C13.144 61.9493 13.6187 61.2027 13.896 60.296C14.184 59.3893 14.328 58.424 14.328 57.4C14.328 57.1333 14.3173 56.8667 14.296 56.6C14.2747 56.3333 14.2373 56.04 14.184 55.72C14.1307 55.4 14.0987 55.1867 14.088 55.08C14.0773 54.984 14.0773 54.9093 14.088 54.856C14.1093 54.8027 14.136 54.776 14.168 54.776C14.2213 54.776 14.28 54.8453 14.344 54.984C14.6213 55.5493 14.904 56.0453 15.192 56.472C15.48 56.8987 15.8427 57.304 16.28 57.688C16.5147 57.9013 16.7707 58.008 17.048 58.008C17.208 58.008 17.3307 57.9653 17.416 57.88C17.512 57.784 17.56 57.6507 17.56 57.48ZM8.904 84.792C9.66133 85.1973 10.5733 85.4 11.64 85.4C12.4507 85.4 13.1227 85.3307 13.656 85.192C14.2 85.0533 14.472 84.8293 14.472 84.52C14.472 84.0933 14.136 83.88 13.464 83.88C13.1973 83.88 12.824 83.928 12.344 84.024C11.768 84.1307 11.304 84.184 10.952 84.184C10.1947 84.184 9.62933 84.0133 9.256 83.672C8.88267 83.3307 8.696 82.888 8.696 82.344C8.696 81.3947 9.10667 80.6747 9.928 80.184C10.7493 79.6827 11.6453 79.352 12.616 79.192C13.0533 79.1173 13.368 79.0373 13.56 78.952C13.752 78.856 13.848 78.696 13.848 78.472C13.848 78.3013 13.736 78.1467 13.512 78.008C13.2987 77.8693 13.064 77.8 12.808 77.8C12.68 77.8 12.504 77.848 12.28 77.944C12.0667 78.04 11.928 78.104 11.864 78.136C11.608 78.264 11.4 78.36 11.24 78.424C11.08 78.488 10.936 78.52 10.808 78.52C10.5733 78.52 10.36 78.3387 10.168 77.976C9.98667 77.6027 9.896 77.208 9.896 76.792C9.896 76.5253 9.91733 76.2747 9.96 76.04C10.0133 75.8053 10.0827 75.5813 10.168 75.368C10.264 75.144 10.328 74.9893 10.36 74.904C10.392 74.808 10.44 74.68 10.504 74.52C10.5787 74.3493 10.6373 74.184 10.68 74.024C10.7333 73.864 10.76 73.6933 10.76 73.512C10.76 73.1707 10.6747 72.8933 10.504 72.68C10.3333 72.4667 10.0827 72.296 9.752 72.168C9.64533 72.1147 9.51733 72.072 9.368 72.04C9.21867 72.008 9.09067 71.992 8.984 71.992C8.824 71.992 8.744 72.0293 8.744 72.104C8.744 72.1253 8.776 72.168 8.84 72.232C8.91467 72.2853 8.98933 72.3493 9.064 72.424C9.30933 72.7013 9.432 73.0693 9.432 73.528C9.432 73.7307 9.41067 73.9493 9.368 74.184C9.336 74.408 9.29333 74.632 9.24 74.856C9.22933 74.9307 9.18667 75.144 9.112 75.496C9.048 75.8373 9.016 76.2213 9.016 76.648C9.016 77.1493 9.08 77.5707 9.208 77.912C9.34667 78.2427 9.56533 78.552 9.864 78.84C9.94933 78.9253 9.992 79.0053 9.992 79.08C9.992 79.1653 9.944 79.24 9.848 79.304C9.24 79.7307 8.744 80.216 8.36 80.76C7.976 81.2933 7.784 81.928 7.784 82.664C7.784 83.6773 8.15733 84.3867 8.904 84.792ZM8.904 106.792C9.66133 107.197 10.5733 107.4 11.64 107.4C12.4507 107.4 13.1227 107.331 13.656 107.192C14.2 107.053 14.472 106.829 14.472 106.52C14.472 106.093 14.136 105.88 13.464 105.88C13.1973 105.88 12.824 105.928 12.344 106.024C11.768 106.131 11.304 106.184 10.952 106.184C10.1947 106.184 9.62933 106.013 9.256 105.672C8.88267 105.331 8.696 104.888 8.696 104.344C8.696 103.395 9.10667 102.675 9.928 102.184C10.7493 101.683 11.6453 101.352 12.616 101.192C13.0533 101.117 13.368 101.037 13.56 100.952C13.752 100.856 13.848 100.696 13.848 100.472C13.848 100.301 13.736 100.147 13.512 100.008C13.2987 99.8693 13.064 99.8 12.808 99.8C12.68 99.8 12.504 99.848 12.28 99.944C12.0667 100.04 11.928 100.104 11.864 100.136C11.608 100.264 11.4 100.36 11.24 100.424C11.08 100.488 10.936 100.52 10.808 100.52C10.5733 100.52 10.36 100.339 10.168 99.976C9.98667 99.6027 9.896 99.208 9.896 98.792C9.896 98.5253 9.91733 98.2747 9.96 98.04C10.0133 97.8053 10.0827 97.5813 10.168 97.368C10.264 97.144 10.328 96.9893 10.36 96.904C10.392 96.808 10.44 96.68 10.504 96.52C10.5787 96.3493 10.6373 96.184 10.68 96.024C10.7333 95.864 10.76 95.6933 10.76 95.512C10.76 95.1707 10.6747 94.8933 10.504 94.68C10.3333 94.4667 10.0827 94.296 9.752 94.168C9.64533 94.1147 9.51733 94.072 9.368 94.04C9.21867 94.008 9.09067 93.992 8.984 93.992C8.824 93.992 8.744 94.0293 8.744 94.104C8.744 94.1253 8.776 94.168 8.84 94.232C8.91467 94.2853 8.98933 94.3493 9.064 94.424C9.30933 94.7013 9.432 95.0693 9.432 95.528C9.432 95.7307 9.41067 95.9493 9.368 96.184C9.336 96.408 9.29333 96.632 9.24 96.856C9.22933 96.9307 9.18667 97.144 9.112 97.496C9.048 97.8373 9.016 98.2213 9.016 98.648C9.016 99.1493 9.08 99.5707 9.208 99.912C9.34667 100.243 9.56533 100.552 9.864 100.84C9.94933 100.925 9.992 101.005 9.992 101.08C9.992 101.165 9.944 101.24 9.848 101.304C9.24 101.731 8.744 102.216 8.36 102.76C7.976 103.293 7.784 103.928 7.784 104.664C7.784 105.677 8.15733 106.387 8.904 106.792ZM14.648 121.448C15.0427 121.149 15.24 120.867 15.24 120.6C15.24 120.429 15.1707 120.312 15.032 120.248C14.904 120.173 14.712 120.136 14.456 120.136L13.992 120.168C13.7573 120.2 13.544 120.216 13.352 120.216C12.8933 120.216 12.4347 120.163 11.976 120.056C11.8267 120.024 11.704 119.939 11.608 119.8L11.576 119.736C11.544 119.672 11.528 119.619 11.528 119.576C11.528 119.469 11.5973 119.379 11.736 119.304L11.928 119.208C12.024 119.155 12.1093 119.085 12.184 119C12.2587 118.915 12.296 118.829 12.296 118.744C12.296 118.616 12.2267 118.504 12.088 118.408C11.96 118.301 11.7947 118.248 11.592 118.248C11.4853 118.248 11.3573 118.269 11.208 118.312C11.144 118.323 11.0747 118.349 11 118.392C10.8613 118.435 10.7387 118.371 10.632 118.2C10.2587 117.571 10.024 117.171 9.928 117C9.608 116.499 9.17067 116.248 8.616 116.248C8.424 116.248 8.216 116.285 7.992 116.36C7.768 116.435 7.656 116.531 7.656 116.648C7.656 116.701 7.68267 116.749 7.736 116.792C7.78933 116.824 7.86933 116.867 7.976 116.92C8.08267 116.963 8.184 117.011 8.28 117.064C8.86667 117.363 9.41067 117.816 9.912 118.424C9.976 118.499 10.008 118.573 10.008 118.648C10.008 118.755 9.93867 118.835 9.8 118.888C9.50133 118.995 9.24 119.048 9.016 119.048C8.76 119.048 8.49867 119 8.232 118.904C7.976 118.797 7.79467 118.701 7.688 118.616C7.464 118.456 7.32 118.376 7.256 118.376C7.21333 118.376 7.192 118.397 7.192 118.44C7.192 118.461 7.208 118.499 7.24 118.552C7.272 118.605 7.29867 118.648 7.32 118.68C7.58667 119.096 7.88 119.416 8.2 119.64C8.52 119.864 8.888 119.976 9.304 119.976C9.64533 119.976 10.0453 119.912 10.504 119.784C10.568 119.763 10.616 119.752 10.648 119.752C10.776 119.752 10.872 119.821 10.936 119.96L10.984 120.04L11.624 121.224C11.656 121.288 11.672 121.347 11.672 121.4C11.672 121.539 11.592 121.624 11.432 121.656C10.696 121.859 10.0613 121.96 9.528 121.96C9.03733 121.96 8.552 121.875 8.072 121.704C7.592 121.533 7.24533 121.373 7.032 121.224C6.92533 121.16 6.84533 121.128 6.792 121.128C6.74933 121.128 6.728 121.144 6.728 121.176C6.728 121.229 6.76 121.309 6.824 121.416C6.888 121.523 6.97867 121.635 7.096 121.752C7.82133 122.52 8.78667 122.904 9.992 122.904C10.5573 122.904 11.2347 122.803 12.024 122.6C12.216 122.547 12.36 122.611 12.456 122.792L12.696 123.24C12.9947 123.795 13.1707 124.136 13.224 124.264C13.3093 124.435 13.352 124.584 13.352 124.712C13.352 124.925 13.1653 125.032 12.792 125.032C12.7493 125.032 12.568 125.011 12.248 124.968C11.5227 124.861 11.0213 124.808 10.744 124.808C9.73067 124.808 8.87733 125.021 8.184 125.448C7.49067 125.864 7.144 126.461 7.144 127.24C7.144 127.912 7.44267 128.467 8.04 128.904C8.648 129.341 9.47467 129.571 10.52 129.592C11.0747 129.592 11.544 129.56 11.928 129.496C12.0987 129.464 12.2267 129.389 12.312 129.272C12.408 129.155 12.456 129.027 12.456 128.888C12.456 128.632 12.3173 128.44 12.04 128.312C11.7627 128.173 11.432 128.104 11.048 128.104C10.9413 128.104 10.76 128.125 10.504 128.168C10.184 128.232 9.90667 128.264 9.672 128.264C9.17067 128.264 8.74933 128.152 8.408 127.928C8.06667 127.704 7.896 127.352 7.896 126.872C7.896 126.381 8.12533 126.003 8.584 125.736C9.05333 125.459 9.62933 125.32 10.312 125.32C10.8453 125.32 11.3787 125.416 11.912 125.608C12.4453 125.789 12.9093 126.061 13.304 126.424C13.5493 126.648 13.7467 126.76 13.896 126.76C14.0133 126.76 14.1413 126.691 14.28 126.552C14.4293 126.403 14.5573 126.221 14.664 126.008C14.7707 125.795 14.824 125.603 14.824 125.432C14.824 125.229 14.7813 125.032 14.696 124.84C14.6107 124.637 14.4667 124.381 14.264 124.072L13.976 123.608L13.32 122.568C13.2773 122.493 13.256 122.424 13.256 122.36C13.256 122.253 13.32 122.168 13.448 122.104C13.96 121.891 14.36 121.672 14.648 121.448ZM12.296 120.456C12.3387 120.456 12.376 120.461 12.408 120.472L12.872 120.616C13.0213 120.648 13.096 120.712 13.096 120.808C13.096 120.904 12.984 121.027 12.76 121.176L12.648 121.24C12.5733 121.272 12.4773 121.197 12.36 121.016L12.232 120.808C12.1893 120.733 12.168 120.664 12.168 120.6C12.168 120.504 12.2107 120.456 12.296 120.456ZM14.792 141.944C15.1333 142.147 15.5067 142.248 15.912 142.248C16.3173 142.248 16.6907 142.147 17.032 141.944C17.3733 141.741 17.64 141.469 17.832 141.128C18.0347 140.787 18.136 140.408 18.136 139.992C18.136 139.587 18.0347 139.213 17.832 138.872C17.64 138.531 17.3733 138.264 17.032 138.072C16.6907 137.869 16.3173 137.768 15.912 137.768C15.5067 137.768 15.1333 137.869 14.792 138.072C14.4507 138.264 14.1787 138.531 13.976 138.872C13.7733 139.213 13.672 139.587 13.672 139.992C13.672 140.408 13.7733 140.787 13.976 141.128C14.1787 141.469 14.4507 141.741 14.792 141.944ZM17.128 141.224C16.7973 141.565 16.392 141.736 15.912 141.736C15.432 141.736 15.0213 141.571 14.68 141.24C14.3387 140.899 14.168 140.483 14.168 139.992C14.168 139.523 14.3387 139.123 14.68 138.792C15.0213 138.451 15.432 138.28 15.912 138.28C16.3813 138.28 16.7867 138.451 17.128 138.792C17.4693 139.123 17.64 139.523 17.64 139.992C17.64 140.472 17.4693 140.883 17.128 141.224Z" fill="white"/>
<path fill-rule="evenodd" clip-rule="evenodd" d="M58 0H35V110H58V0ZM44.996 11.432C44.996 11.4747 45.0227 11.496 45.076 11.496C45.1293 11.496 45.2093 11.4587 45.316 11.384C46.3187 10.6053 47.3213 10.152 48.324 10.024C48.708 9.97067 48.964 9.912 49.092 9.848C49.2307 9.77333 49.3 9.65067 49.3 9.48C49.3 9.27733 49.2147 9.08 49.044 8.888C48.8733 8.696 48.6867 8.568 48.484 8.504C48.388 8.46133 48.2547 8.44 48.084 8.44C47.924 8.44 47.652 8.46133 47.268 8.504C46.8947 8.55733 46.5747 8.584 46.308 8.584C45.9453 8.584 45.5667 8.54667 45.172 8.472C44.7773 8.38667 44.4627 8.28533 44.228 8.168C44.0573 8.08267 43.9187 8.008 43.812 7.944L43.732 7.912C43.7107 7.912 43.7 7.93867 43.7 7.992C43.7 8.10933 43.764 8.248 43.892 8.408C44.0733 8.64267 44.3347 8.888 44.676 9.144C45.0173 9.38933 45.396 9.56 45.812 9.656C46.292 9.76267 46.532 9.85333 46.532 9.928C46.532 9.992 46.2867 10.2267 45.796 10.632C45.3693 11.0053 45.1347 11.2133 45.092 11.256C45.028 11.32 44.996 11.3787 44.996 11.432ZM44.596 18.712C45.2787 18.8507 46.02 18.92 46.82 18.92C47.4067 18.92 47.9667 18.888 48.5 18.824C49.0333 18.76 49.46 18.68 49.78 18.584C50.356 18.4027 50.644 18.1413 50.644 17.8C50.644 17.5867 50.548 17.416 50.356 17.288C50.1747 17.1493 49.9293 17.08 49.62 17.08C49.524 17.08 49.188 17.1227 48.612 17.208C47.588 17.4 46.6973 17.496 45.94 17.496C45.1827 17.496 44.5373 17.4053 44.004 17.224C43.2147 16.9467 42.82 16.4933 42.82 15.864C42.82 15.8 42.8253 15.736 42.836 15.672C42.8467 15.608 42.852 15.544 42.852 15.48C42.852 15.32 42.8147 15.24 42.74 15.24C42.6547 15.24 42.5533 15.3947 42.436 15.704C42.372 15.928 42.34 16.184 42.34 16.472C42.34 17.1227 42.5693 17.6347 43.028 18.008C43.4013 18.3387 43.924 18.5733 44.596 18.712ZM49.508 30.376C48.6013 30.0027 47.6893 29.816 46.772 29.816C45.6947 29.816 44.6547 30.0613 43.652 30.552C42.66 31.0427 41.8493 31.7413 41.22 32.648C40.6013 33.5547 40.292 34.5947 40.292 35.768C40.292 36.4187 40.3933 37.0587 40.596 37.688C40.8093 38.3173 41.0867 38.8293 41.428 39.224C41.78 39.6187 42.1533 39.816 42.548 39.816C42.8147 39.816 43.1613 39.6347 43.588 39.272C44.0147 38.9093 44.452 38.3867 44.9 37.704C45.3587 37.0213 45.7587 36.2267 46.1 35.32C46.292 34.8293 46.436 34.3387 46.532 33.848C46.628 33.3467 46.676 32.8933 46.676 32.488C46.676 32.2213 46.6493 31.928 46.596 31.608C46.5427 31.288 46.468 30.9893 46.372 30.712C46.3293 30.5733 46.404 30.4453 46.596 30.328C47.3107 30.328 48.0307 30.4827 48.756 30.792C49.4813 31.1013 50.0947 31.624 50.596 32.36C51.0973 33.0853 51.348 34.04 51.348 35.224C51.348 36.856 50.7773 38.1413 49.636 39.08C48.5053 40.008 47.044 40.6213 45.252 40.92C45.1133 40.9413 44.9747 40.968 44.836 41C44.6973 41.0427 44.628 41.0853 44.628 41.128C44.628 41.1493 44.66 41.1653 44.724 41.176C44.788 41.1973 44.8573 41.208 44.932 41.208C45.892 41.208 46.9587 41.0533 48.132 40.744C49.316 40.424 50.372 39.8267 51.3 38.952C52.228 38.0667 52.692 36.8507 52.692 35.304C52.692 34.0347 52.388 32.9893 51.78 32.168C51.172 31.3467 50.4147 30.7493 49.508 30.376ZM46.036 30.664C46.1 30.9307 46.132 31.2347 46.132 31.576C46.132 32.3653 46.0093 33.1387 45.764 33.896C45.5187 34.6427 45.108 35.464 44.532 36.36C44.2013 36.872 43.8547 37.32 43.492 37.704C43.14 38.088 42.836 38.28 42.58 38.28C42.4627 38.28 42.3027 38.1787 42.1 37.976C41.908 37.7733 41.732 37.464 41.572 37.048C41.4227 36.6213 41.348 36.104 41.348 35.496C41.348 34.6427 41.54 33.8587 41.924 33.144C42.308 32.4187 42.8253 31.8213 43.476 31.352C44.1267 30.872 44.8467 30.5573 45.636 30.408C45.86 30.376 45.9933 30.4613 46.036 30.664ZM50.74 55.944C50.644 56.0827 50.5107 56.152 50.34 56.152H41.492C40.756 56.1307 40.2067 56.104 39.844 56.072C39.748 56.0613 39.6733 56.0773 39.62 56.12C39.5667 56.152 39.54 56.2 39.54 56.264C39.54 56.328 39.556 56.392 39.588 56.456L39.684 56.648C39.748 56.7867 39.8547 56.856 40.004 56.856H40.1C40.8573 56.7493 41.5613 56.6907 42.212 56.68H53.124C53.2947 56.68 53.4173 56.6533 53.492 56.6C53.556 56.5467 53.588 56.488 53.588 56.424C53.588 56.36 53.5613 56.3013 53.508 56.248C53.3267 56.0133 53.0013 55.6933 52.532 55.288C52.0733 54.872 51.8013 54.664 51.716 54.664C51.6733 54.664 51.6093 54.712 51.524 54.808C51.4493 54.904 51.3693 55.016 51.284 55.144L51.092 55.416L50.74 55.944ZM50.452 73.384C50.356 73.5333 50.2173 73.608 50.036 73.608H42.708C42.5587 73.608 42.4253 73.5813 42.308 73.528L41.364 73.128C41.3213 73.1067 41.268 73.096 41.204 73.096C41.0653 73.096 40.996 73.1813 40.996 73.352V73.416C41.092 74.248 41.14 75.1867 41.14 76.232V84.408C41.14 84.5147 41.108 84.6 41.044 84.664C40.9907 84.7173 40.9107 84.744 40.804 84.744H40.516C40.1533 84.7227 39.876 84.7013 39.684 84.68C39.4707 84.6587 39.364 84.7227 39.364 84.872C39.364 84.9253 39.38 84.984 39.412 85.048L39.476 85.192C39.54 85.3307 39.6467 85.4 39.796 85.4H39.892C40.6493 85.2933 41.3533 85.2347 42.004 85.224H53.316C53.4333 85.224 53.5293 85.1973 53.604 85.144C53.668 85.1013 53.7 85.0427 53.7 84.968C53.7 84.9253 53.6787 84.8613 53.636 84.776C53.508 84.5627 53.3053 84.3013 53.028 83.992C52.7613 83.6827 52.5907 83.528 52.516 83.528C52.4733 83.528 52.4307 83.5547 52.388 83.608C52.3453 83.6613 52.292 83.7467 52.228 83.864C52.1747 83.9813 52.1267 84.072 52.084 84.136L51.78 84.744H51.748C51.7373 84.7333 51.7267 84.7013 51.716 84.648C51.7053 84.584 51.7 84.504 51.7 84.408V74.552C51.7 74.3707 51.8013 74.2533 52.004 74.2C52.1213 74.1467 52.1853 74.12 52.196 74.12C52.292 74.0667 52.34 73.9973 52.34 73.912C52.34 73.848 52.3187 73.7893 52.276 73.736C52.116 73.544 51.876 73.3253 51.556 73.08C51.2467 72.824 51.0493 72.696 50.964 72.696C50.9213 72.696 50.8787 72.7173 50.836 72.76C50.804 72.8027 50.7613 72.872 50.708 72.968C50.6547 73.0533 50.612 73.1173 50.58 73.16L50.452 73.384ZM44.148 74.168C44.212 74.2213 44.244 74.3013 44.244 74.408V84.408C44.244 84.5147 44.212 84.6 44.148 84.664C44.0947 84.7173 44.0147 84.744 43.908 84.744H42.676C42.5693 84.744 42.484 84.7173 42.42 84.664C42.3667 84.6 42.34 84.5147 42.34 84.408V74.408C42.34 74.3013 42.3667 74.2213 42.42 74.168C42.484 74.104 42.5693 74.072 42.676 74.072H43.908C44.0147 74.072 44.0947 74.104 44.148 74.168ZM47.236 84.664C47.1827 84.7173 47.1027 84.744 46.996 84.744H45.732C45.6253 84.744 45.54 84.7173 45.476 84.664C45.4227 84.6 45.396 84.5147 45.396 84.408V74.408C45.396 74.3013 45.4227 74.2213 45.476 74.168C45.54 74.104 45.6253 74.072 45.732 74.072H46.996C47.1027 74.072 47.1827 74.104 47.236 74.168C47.3 74.2213 47.332 74.3013 47.332 74.408V84.408C47.332 84.5147 47.3 84.6 47.236 84.664ZM50.372 84.664C50.3187 84.7173 50.2387 84.744 50.132 84.744H48.836C48.7293 84.744 48.644 84.7173 48.58 84.664C48.5267 84.6 48.5 84.5147 48.5 84.408V74.408C48.5 74.3013 48.5267 74.2213 48.58 74.168C48.644 74.104 48.7293 74.072 48.836 74.072H50.132C50.2387 74.072 50.3187 74.104 50.372 74.168C50.436 74.2213 50.468 74.3013 50.468 74.408V84.408C50.468 84.5147 50.436 84.6 50.372 84.664ZM51.156 95.32C51.476 95.7467 51.8173 96.264 52.18 96.872C52.404 97.256 52.6547 97.448 52.932 97.448C53.1133 97.448 53.2787 97.3733 53.428 97.224C53.588 97.0747 53.668 96.856 53.668 96.568C53.668 96.1627 53.4547 95.7733 53.028 95.4C52.612 95.016 52.1267 94.6907 51.572 94.424C51.0173 94.1573 50.564 93.9813 50.212 93.896C50.0947 93.864 49.9987 93.848 49.924 93.848C49.8387 93.848 49.796 93.8747 49.796 93.928C49.796 93.96 49.8333 94.0027 49.908 94.056C49.9827 94.1093 50.0413 94.152 50.084 94.184C50.4893 94.5147 50.8467 94.8933 51.156 95.32Z" fill="white"/>
<path fill-rule="evenodd" clip-rule="evenodd" d="M93 0H70V88H93V0ZM79.998 11.432C79.998 11.4747 80.0246 11.496 80.078 11.496C80.1313 11.496 80.2113 11.4587 80.318 11.384C81.3206 10.6053 82.3233 10.152 83.326 10.024C83.71 9.97067 83.966 9.912 84.094 9.848C84.2326 9.77333 84.302 9.65067 84.302 9.48C84.302 9.27733 84.2166 9.08 84.046 8.888C83.8753 8.696 83.6886 8.568 83.486 8.504C83.39 8.46133 83.2566 8.44 83.086 8.44C82.926 8.44 82.654 8.46133 82.27 8.504C81.8966 8.55733 81.5766 8.584 81.31 8.584C80.9473 8.584 80.5686 8.54667 80.174 8.472C79.7793 8.38667 79.4646 8.28533 79.23 8.168C79.0593 8.08267 78.9206 8.008 78.814 7.944L78.734 7.912C78.7126 7.912 78.702 7.93867 78.702 7.992C78.702 8.10933 78.766 8.248 78.894 8.408C79.0753 8.64267 79.3366 8.888 79.678 9.144C80.0193 9.38933 80.398 9.56 80.814 9.656C81.294 9.76267 81.534 9.85333 81.534 9.928C81.534 9.992 81.2886 10.2267 80.798 10.632C80.3713 11.0053 80.1366 11.2133 80.094 11.256C80.03 11.32 79.998 11.3787 79.998 11.432ZM79.598 18.712C80.2806 18.8507 81.022 18.92 81.822 18.92C82.4086 18.92 82.9686 18.888 83.502 18.824C84.0353 18.76 84.462 18.68 84.782 18.584C85.358 18.4027 85.646 18.1413 85.646 17.8C85.646 17.5867 85.55 17.416 85.358 17.288C85.1766 17.1493 84.9313 17.08 84.622 17.08C84.526 17.08 84.19 17.1227 83.614 17.208C82.59 17.4 81.6993 17.496 80.942 17.496C80.1846 17.496 79.5393 17.4053 79.006 17.224C78.2166 16.9467 77.822 16.4933 77.822 15.864C77.822 15.8 77.8273 15.736 77.838 15.672C77.8486 15.608 77.854 15.544 77.854 15.48C77.854 15.32 77.8166 15.24 77.742 15.24C77.6566 15.24 77.5553 15.3947 77.438 15.704C77.374 15.928 77.342 16.184 77.342 16.472C77.342 17.1227 77.5713 17.6347 78.03 18.008C78.4033 18.3387 78.926 18.5733 79.598 18.712ZM84.51 30.376C83.6033 30.0027 82.6913 29.816 81.774 29.816C80.6966 29.816 79.6566 30.0613 78.654 30.552C77.662 31.0427 76.8513 31.7413 76.222 32.648C75.6033 33.5547 75.294 34.5947 75.294 35.768C75.294 36.4187 75.3953 37.0587 75.598 37.688C75.8113 38.3173 76.0886 38.8293 76.43 39.224C76.782 39.6187 77.1553 39.816 77.55 39.816C77.8166 39.816 78.1633 39.6347 78.59 39.272C79.0166 38.9093 79.454 38.3867 79.902 37.704C80.3606 37.0213 80.7606 36.2267 81.102 35.32C81.294 34.8293 81.438 34.3387 81.534 33.848C81.63 33.3467 81.678 32.8933 81.678 32.488C81.678 32.2213 81.6513 31.928 81.598 31.608C81.5446 31.288 81.47 30.9893 81.374 30.712C81.3313 30.5733 81.406 30.4453 81.598 30.328C82.3126 30.328 83.0326 30.4827 83.758 30.792C84.4833 31.1013 85.0966 31.624 85.598 32.36C86.0993 33.0853 86.35 34.04 86.35 35.224C86.35 36.856 85.7793 38.1413 84.638 39.08C83.5073 40.008 82.046 40.6213 80.254 40.92C80.1153 40.9413 79.9766 40.968 79.838 41C79.6993 41.0427 79.63 41.0853 79.63 41.128C79.63 41.1493 79.662 41.1653 79.726 41.176C79.79 41.1973 79.8593 41.208 79.934 41.208C80.894 41.208 81.9606 41.0533 83.134 40.744C84.318 40.424 85.374 39.8267 86.302 38.952C87.23 38.0667 87.694 36.8507 87.694 35.304C87.694 34.0347 87.39 32.9893 86.782 32.168C86.174 31.3467 85.4166 30.7493 84.51 30.376ZM81.038 30.664C81.102 30.9307 81.134 31.2347 81.134 31.576C81.134 32.3653 81.0113 33.1387 80.766 33.896C80.5206 34.6427 80.11 35.464 79.534 36.36C79.2033 36.872 78.8566 37.32 78.494 37.704C78.142 38.088 77.838 38.28 77.582 38.28C77.4646 38.28 77.3046 38.1787 77.102 37.976C76.91 37.7733 76.734 37.464 76.574 37.048C76.4246 36.6213 76.35 36.104 76.35 35.496C76.35 34.6427 76.542 33.8587 76.926 33.144C77.31 32.4187 77.8273 31.8213 78.478 31.352C79.1286 30.872 79.8486 30.5573 80.638 30.408C80.862 30.376 80.9953 30.4613 81.038 30.664ZM85.822 50.184C85.726 50.3333 85.5926 50.408 85.422 50.408H81.406C81.2566 50.408 81.1233 50.3813 81.006 50.328L80.11 49.944C80.0673 49.9227 80.014 49.912 79.95 49.912C79.8113 49.912 79.742 49.992 79.742 50.152V50.216C79.8273 51.0693 79.87 51.9547 79.87 52.872V53.896C79.8486 54.5787 79.8166 55.144 79.774 55.592C79.774 55.6773 79.8006 55.752 79.854 55.816C79.9073 55.88 79.9766 55.912 80.062 55.912C80.3286 55.912 80.5526 55.8747 80.734 55.8C80.926 55.7147 81.022 55.64 81.022 55.576V55.304C81.022 55.1973 81.0486 55.1173 81.102 55.064C81.166 55 81.2513 54.968 81.358 54.968H85.406C85.5126 54.968 85.5926 55 85.646 55.064C85.71 55.1173 85.742 55.1973 85.742 55.304V55.384C85.742 55.4907 85.758 55.576 85.79 55.64C85.8326 55.6933 85.8806 55.72 85.934 55.72C86.286 55.72 86.6006 55.6347 86.878 55.464C86.9846 55.4 87.038 55.2933 87.038 55.144V55.064C87.006 54.5093 86.974 53.6347 86.942 52.44V51.256C86.942 51.0747 87.038 50.9467 87.23 50.872C87.2513 50.872 87.2833 50.8613 87.326 50.84C87.4113 50.7867 87.454 50.7173 87.454 50.632C87.454 50.568 87.4326 50.5147 87.39 50.472C87.262 50.2907 87.07 50.0933 86.814 49.88C86.5686 49.6667 86.4086 49.56 86.334 49.56C86.2913 49.56 86.2486 49.5813 86.206 49.624C86.174 49.6667 86.1313 49.7307 86.078 49.816C86.0246 49.8907 85.982 49.9493 85.95 49.992L85.822 50.184ZM75.47 49.704C75.4166 49.736 75.4753 49.8373 75.646 50.008C75.8913 50.2533 76.126 50.536 76.35 50.856C76.574 51.1653 76.75 51.464 76.878 51.752C76.9526 51.9227 77.0486 52.0293 77.166 52.072C77.2726 52.0933 77.3526 52.104 77.406 52.104C77.5873 52.104 77.7313 52.0453 77.838 51.928C77.9553 51.8 78.014 51.64 78.014 51.448C78.014 51.1067 77.8326 50.7707 77.47 50.44C77.118 50.1093 76.5633 49.8587 75.806 49.688C75.7526 49.6773 75.6833 49.672 75.598 49.672C75.534 49.672 75.4913 49.6827 75.47 49.704ZM85.646 52.376C85.5926 52.4293 85.5126 52.456 85.406 52.456H81.358C81.2513 52.456 81.166 52.4293 81.102 52.376C81.0486 52.312 81.022 52.2267 81.022 52.12V51.208C81.022 51.1013 81.0486 51.0213 81.102 50.968C81.166 50.904 81.2513 50.872 81.358 50.872H85.406C85.5126 50.872 85.5926 50.904 85.646 50.968C85.71 51.0213 85.742 51.1013 85.742 51.208V52.12C85.742 52.2267 85.71 52.312 85.646 52.376ZM74.91 59.656C74.686 59.656 74.574 59.7147 74.574 59.832C74.574 59.928 74.6806 60.0027 74.894 60.056C75.0646 60.088 75.214 60.152 75.342 60.248C75.4486 60.3227 75.5286 60.4933 75.582 60.76C75.6353 61.0267 75.662 61.368 75.662 61.784C75.662 62.232 75.63 62.728 75.566 63.272C75.5553 63.336 75.55 63.416 75.55 63.512C75.55 63.5867 75.5553 63.6453 75.566 63.688C75.6086 63.88 75.678 64.024 75.774 64.12C75.87 64.2267 75.982 64.28 76.11 64.28C76.4086 64.28 76.638 64.1573 76.798 63.912C76.958 63.6773 77.038 63.3467 77.038 62.92C77.038 62.6107 77.0166 62.344 76.974 62.12C76.9313 61.8853 76.8673 61.5867 76.782 61.224C76.6646 60.7973 76.606 60.4667 76.606 60.232C76.606 59.9653 76.6806 59.5227 76.83 58.904C76.926 58.5627 77.1873 57.7467 77.614 56.456C78.0406 55.1547 78.4406 53.9387 78.814 52.808C78.846 52.7227 78.862 52.6533 78.862 52.6C78.862 52.4933 78.8246 52.44 78.75 52.44C78.6646 52.44 78.5793 52.536 78.494 52.728L77.95 54.008C77.7366 54.5093 77.4433 55.2027 77.07 56.088C76.7073 56.9627 76.4086 57.6667 76.174 58.2C75.95 58.7333 75.774 59.1067 75.646 59.32C75.582 59.48 75.5286 59.576 75.486 59.608C75.4433 59.64 75.3633 59.656 75.246 59.656H74.91ZM81.102 53C81.166 52.936 81.2513 52.904 81.358 52.904H85.406C85.5126 52.904 85.5926 52.936 85.646 53C85.71 53.0533 85.742 53.1333 85.742 53.24V54.168C85.742 54.2747 85.71 54.36 85.646 54.424C85.5926 54.4773 85.5126 54.504 85.406 54.504H81.358C81.2513 54.504 81.166 54.4773 81.102 54.424C81.0486 54.36 81.022 54.2747 81.022 54.168V53.24C81.022 53.1333 81.0486 53.0533 81.102 53ZM74.414 53.4C74.4566 53.4533 74.5153 53.512 74.59 53.576C74.8246 53.8 75.0433 54.056 75.246 54.344C75.4486 54.6213 75.598 54.8933 75.694 55.16C75.7473 55.32 75.838 55.4267 75.966 55.48C76.062 55.512 76.1473 55.528 76.222 55.528C76.3926 55.528 76.5313 55.464 76.638 55.336C76.7446 55.208 76.798 55.048 76.798 54.856C76.798 54.536 76.6273 54.2267 76.286 53.928C75.9553 53.6187 75.438 53.4 74.734 53.272C74.6806 53.2613 74.6113 53.256 74.526 53.256C74.462 53.256 74.4193 53.2667 74.398 53.288C74.3766 53.3093 74.382 53.3467 74.414 53.4ZM86.702 56.296C86.606 56.4347 86.4726 56.504 86.302 56.504H79.966C79.23 56.4827 78.6806 56.456 78.318 56.424C78.1046 56.4027 77.998 56.472 77.998 56.632C77.998 56.6853 78.014 56.744 78.046 56.808L78.11 56.92C78.1846 57.0587 78.286 57.128 78.414 57.128C78.4673 57.128 78.51 57.1227 78.542 57.112C78.926 57.0267 79.31 56.9787 79.694 56.968H80.062C80.2646 56.968 80.366 57.0427 80.366 57.192C80.366 57.2453 80.35 57.304 80.318 57.368C79.6246 58.68 78.7393 59.752 77.662 60.584C77.5233 60.6907 77.454 60.7813 77.454 60.856C77.454 60.8773 77.4593 60.8933 77.47 60.904C77.4913 60.9467 77.5286 60.968 77.582 60.968C77.6353 60.968 77.7153 60.9413 77.822 60.888C78.8033 60.344 79.646 59.7147 80.35 59C80.4673 58.8827 80.606 58.824 80.766 58.824H81.422C81.5073 58.824 81.5766 58.8453 81.63 58.888C81.6833 58.92 81.71 58.968 81.71 59.032C81.71 59.1067 81.6886 59.1707 81.646 59.224C80.878 60.4507 79.87 61.448 78.622 62.216C78.4726 62.312 78.398 62.392 78.398 62.456C78.398 62.488 78.4033 62.5093 78.414 62.52C78.446 62.5733 78.494 62.6 78.558 62.6C78.5793 62.6 78.654 62.5787 78.782 62.536C80.6593 61.6827 82.0673 60.52 83.006 59.048C83.1126 58.8987 83.2513 58.824 83.422 58.824H83.934C84.03 58.824 84.1046 58.8453 84.158 58.888C84.2113 58.9307 84.238 58.9893 84.238 59.064C84.238 59.096 84.2273 59.144 84.206 59.208C83.79 60.2533 83.198 61.1653 82.43 61.944C81.662 62.712 80.702 63.3573 79.55 63.88C79.39 63.9653 79.31 64.0507 79.31 64.136V64.168C79.3206 64.2107 79.3686 64.232 79.454 64.232C79.55 64.232 79.6246 64.2213 79.678 64.2C81.2033 63.6667 82.4406 62.9893 83.39 62.168C84.35 61.336 85.0753 60.312 85.566 59.096C85.63 58.9147 85.758 58.824 85.95 58.824H86.382C86.5953 58.824 86.702 58.9307 86.702 59.144V59.192C86.5953 60.1413 86.4566 60.9253 86.286 61.544C86.126 62.152 85.95 62.5307 85.758 62.68C85.6833 62.7333 85.6033 62.7707 85.518 62.792C85.4433 62.8133 85.342 62.824 85.214 62.824C84.958 62.824 84.4566 62.792 83.71 62.728C83.4753 62.7067 83.358 62.7387 83.358 62.824C83.358 62.9093 83.4593 62.9733 83.662 63.016C84.1313 63.1227 84.4513 63.256 84.622 63.416C84.7286 63.5013 84.8086 63.672 84.862 63.928C84.894 64.1413 84.9953 64.248 85.166 64.248H85.214C85.7366 64.1947 86.1793 64.0347 86.542 63.768C87.2353 63.224 87.694 61.7307 87.918 59.288C87.9286 59.1813 87.9606 59.1013 88.014 59.048C88.0673 58.9947 88.142 58.952 88.238 58.92C88.27 58.92 88.3073 58.9093 88.35 58.888C88.446 58.856 88.494 58.792 88.494 58.696C88.494 58.632 88.4726 58.5733 88.43 58.52C88.302 58.3493 88.1046 58.1627 87.838 57.96C87.582 57.7467 87.4166 57.64 87.342 57.64C87.2993 57.64 87.2566 57.656 87.214 57.688C87.1713 57.72 87.118 57.7733 87.054 57.848C87.0006 57.912 86.958 57.96 86.926 57.992L86.782 58.152C86.686 58.28 86.5473 58.344 86.366 58.344H81.438C81.3526 58.344 81.2833 58.328 81.23 58.296C81.1766 58.2533 81.15 58.2053 81.15 58.152C81.15 58.0987 81.1766 58.0293 81.23 57.944C81.4433 57.624 81.5926 57.3787 81.678 57.208C81.774 57.048 81.9073 56.968 82.078 56.968H88.286C88.4033 56.968 88.4993 56.9413 88.574 56.888C88.638 56.8347 88.67 56.776 88.67 56.712C88.67 56.6587 88.6433 56.5947 88.59 56.52C88.4513 56.3493 88.2326 56.1467 87.934 55.912C87.6353 55.6667 87.4433 55.544 87.358 55.544C87.3153 55.544 87.2726 55.5653 87.23 55.608C87.1873 55.6507 87.1286 55.72 87.054 55.816C86.99 55.9013 86.9366 55.9707 86.894 56.024L86.702 56.296ZM86.158 73.32C86.478 73.7467 86.8193 74.264 87.182 74.872C87.406 75.256 87.6566 75.448 87.934 75.448C88.1153 75.448 88.2806 75.3733 88.43 75.224C88.59 75.0747 88.67 74.856 88.67 74.568C88.67 74.1627 88.4566 73.7733 88.03 73.4C87.614 73.016 87.1286 72.6907 86.574 72.424C86.0193 72.1573 85.566 71.9813 85.214 71.896C85.0966 71.864 85.0006 71.848 84.926 71.848C84.8406 71.848 84.798 71.8747 84.798 71.928C84.798 71.96 84.8353 72.0027 84.91 72.056C84.9846 72.1093 85.0433 72.152 85.086 72.184C85.4913 72.5147 85.8486 72.8933 86.158 73.32Z" fill="white"/>
</svg>
