<svg width="89" height="152" viewBox="0 0 89 152" fill="none" xmlns="http://www.w3.org/2000/svg">
<path fill-rule="evenodd" clip-rule="evenodd" d="M23 0H0V152H23V0ZM9.496 11.432C9.496 11.4747 9.52267 11.496 9.576 11.496C9.62933 11.496 9.70933 11.4587 9.816 11.384C10.8187 10.6053 11.8213 10.152 12.824 10.024C13.208 9.97067 13.464 9.912 13.592 9.848C13.7307 9.77333 13.8 9.65067 13.8 9.48C13.8 9.27733 13.7147 9.08 13.544 8.888C13.3733 8.696 13.1867 8.568 12.984 8.504C12.888 8.46133 12.7547 8.44 12.584 8.44C12.424 8.44 12.152 8.46133 11.768 8.504C11.3947 8.55733 11.0747 8.584 10.808 8.584C10.4453 8.584 10.0667 8.54667 9.672 8.472C9.27733 8.38667 8.96267 8.28533 8.728 8.168C8.55733 8.08267 8.41867 8.008 8.312 7.944L8.232 7.912C8.21067 7.912 8.2 7.93867 8.2 7.992C8.2 8.10933 8.264 8.248 8.392 8.408C8.57333 8.64267 8.83467 8.888 9.176 9.144C9.51733 9.38933 9.896 9.56 10.312 9.656C10.792 9.76267 11.032 9.85333 11.032 9.928C11.032 9.992 10.7867 10.2267 10.296 10.632C9.86933 11.0053 9.63467 11.2133 9.592 11.256C9.528 11.32 9.496 11.3787 9.496 11.432ZM9.096 18.712C9.77867 18.8507 10.52 18.92 11.32 18.92C11.9067 18.92 12.4667 18.888 13 18.824C13.5333 18.76 13.96 18.68 14.28 18.584C14.856 18.4027 15.144 18.1413 15.144 17.8C15.144 17.5867 15.048 17.416 14.856 17.288C14.6747 17.1493 14.4293 17.08 14.12 17.08C14.024 17.08 13.688 17.1227 13.112 17.208C12.088 17.4 11.1973 17.496 10.44 17.496C9.68267 17.496 9.03733 17.4053 8.504 17.224C7.71467 16.9467 7.32 16.4933 7.32 15.864C7.32 15.8 7.32533 15.736 7.336 15.672C7.34667 15.608 7.352 15.544 7.352 15.48C7.352 15.32 7.31467 15.24 7.24 15.24C7.15467 15.24 7.05333 15.3947 6.936 15.704C6.872 15.928 6.84 16.184 6.84 16.472C6.84 17.1227 7.06933 17.6347 7.528 18.008C7.90133 18.3387 8.424 18.5733 9.096 18.712ZM14.008 30.376C13.1013 30.0027 12.1893 29.816 11.272 29.816C10.1947 29.816 9.15467 30.0613 8.152 30.552C7.16 31.0427 6.34933 31.7413 5.72 32.648C5.10133 33.5547 4.792 34.5947 4.792 35.768C4.792 36.4187 4.89333 37.0587 5.096 37.688C5.30933 38.3173 5.58667 38.8293 5.928 39.224C6.28 39.6187 6.65333 39.816 7.048 39.816C7.31467 39.816 7.66133 39.6347 8.088 39.272C8.51467 38.9093 8.952 38.3867 9.4 37.704C9.85867 37.0213 10.2587 36.2267 10.6 35.32C10.792 34.8293 10.936 34.3387 11.032 33.848C11.128 33.3467 11.176 32.8933 11.176 32.488C11.176 32.2213 11.1493 31.928 11.096 31.608C11.0427 31.288 10.968 30.9893 10.872 30.712C10.8293 30.5733 10.904 30.4453 11.096 30.328C11.8107 30.328 12.5307 30.4827 13.256 30.792C13.9813 31.1013 14.5947 31.624 15.096 32.36C15.5973 33.0853 15.848 34.04 15.848 35.224C15.848 36.856 15.2773 38.1413 14.136 39.08C13.0053 40.008 11.544 40.6213 9.752 40.92C9.61333 40.9413 9.47467 40.968 9.336 41C9.19733 41.0427 9.128 41.0853 9.128 41.128C9.128 41.1493 9.16 41.1653 9.224 41.176C9.288 41.1973 9.35733 41.208 9.432 41.208C10.392 41.208 11.4587 41.0533 12.632 40.744C13.816 40.424 14.872 39.8267 15.8 38.952C16.728 38.0667 17.192 36.8507 17.192 35.304C17.192 34.0347 16.888 32.9893 16.28 32.168C15.672 31.3467 14.9147 30.7493 14.008 30.376ZM10.536 30.664C10.6 30.9307 10.632 31.2347 10.632 31.576C10.632 32.3653 10.5093 33.1387 10.264 33.896C10.0187 34.6427 9.608 35.464 9.032 36.36C8.70133 36.872 8.35467 37.32 7.992 37.704C7.64 38.088 7.336 38.28 7.08 38.28C6.96267 38.28 6.80267 38.1787 6.6 37.976C6.408 37.7733 6.232 37.464 6.072 37.048C5.92267 36.6213 5.848 36.104 5.848 35.496C5.848 34.6427 6.04 33.8587 6.424 33.144C6.808 32.4187 7.32533 31.8213 7.976 31.352C8.62667 30.872 9.34667 30.5573 10.136 30.408C10.36 30.376 10.4933 30.4613 10.536 30.664ZM17.56 57.48C17.56 57.1707 17.4107 56.904 17.112 56.68C16.408 56.1893 15.88 55.768 15.528 55.416C15.1867 55.064 14.92 54.6587 14.728 54.2C14.5467 53.7413 14.4133 53.1227 14.328 52.344C14.2853 51.8853 14.2213 51.5547 14.136 51.352C14.0507 51.1493 13.8907 51.048 13.656 51.048C13.5067 51.048 13.3893 51.1173 13.304 51.256C13.2187 51.384 13.176 51.544 13.176 51.736C13.176 51.8853 13.224 52.2107 13.32 52.712C13.416 53.2453 13.4693 53.5333 13.48 53.576C13.6507 54.6427 13.736 55.6507 13.736 56.6C13.736 58.3707 13.4107 59.7413 12.76 60.712C12.12 61.672 11.16 62.152 9.88 62.152C8.93067 62.152 8.216 61.8533 7.736 61.256C7.256 60.6587 7.016 59.8853 7.016 58.936C7.016 57.9973 7.24533 57.016 7.704 55.992C8.17333 54.9573 8.81867 54.0667 9.64 53.32C9.736 53.2347 9.90133 53.128 10.136 53C10.1573 52.9787 10.2107 52.9467 10.296 52.904C10.3813 52.8507 10.456 52.7973 10.52 52.744C10.5947 52.68 10.632 52.6107 10.632 52.536C10.632 52.3867 10.52 52.2427 10.296 52.104C10.0827 51.9653 9.82667 51.896 9.528 51.896C9.464 51.896 9.37867 51.928 9.272 51.992C9.176 52.0453 9.07467 52.1093 8.968 52.184C8.63733 52.408 8.312 52.5893 7.992 52.728C7.672 52.8667 7.29333 52.936 6.856 52.936C6.64267 52.936 6.44533 52.9147 6.264 52.872C6.09333 52.8187 5.98667 52.7867 5.944 52.776C5.89067 52.7653 5.848 52.7547 5.816 52.744C5.79467 52.7227 5.77333 52.712 5.752 52.712C5.73067 52.712 5.72 52.7227 5.72 52.744C5.72 52.8293 5.784 52.9733 5.912 53.176C6.04 53.3787 6.17867 53.5333 6.328 53.64C6.63733 53.8427 6.94133 53.944 7.24 53.944C7.496 53.944 7.76267 53.896 8.04 53.8C8.12533 53.768 8.18933 53.752 8.232 53.752C8.27467 53.752 8.296 53.7733 8.296 53.816C8.296 53.848 8.264 53.912 8.2 54.008C6.67467 56.0133 5.912 57.8213 5.912 59.432C5.912 60.2107 6.07733 60.904 6.408 61.512C6.73867 62.1093 7.20267 62.5787 7.8 62.92C8.39733 63.2507 9.08533 63.416 9.864 63.416C10.9413 63.416 11.8107 63.1227 12.472 62.536C13.144 61.9493 13.6187 61.2027 13.896 60.296C14.184 59.3893 14.328 58.424 14.328 57.4C14.328 57.1333 14.3173 56.8667 14.296 56.6C14.2747 56.3333 14.2373 56.04 14.184 55.72C14.1307 55.4 14.0987 55.1867 14.088 55.08C14.0773 54.984 14.0773 54.9093 14.088 54.856C14.1093 54.8027 14.136 54.776 14.168 54.776C14.2213 54.776 14.28 54.8453 14.344 54.984C14.6213 55.5493 14.904 56.0453 15.192 56.472C15.48 56.8987 15.8427 57.304 16.28 57.688C16.5147 57.9013 16.7707 58.008 17.048 58.008C17.208 58.008 17.3307 57.9653 17.416 57.88C17.512 57.784 17.56 57.6507 17.56 57.48ZM8.904 84.792C9.66133 85.1973 10.5733 85.4 11.64 85.4C12.4507 85.4 13.1227 85.3307 13.656 85.192C14.2 85.0533 14.472 84.8293 14.472 84.52C14.472 84.0933 14.136 83.88 13.464 83.88C13.1973 83.88 12.824 83.928 12.344 84.024C11.768 84.1307 11.304 84.184 10.952 84.184C10.1947 84.184 9.62933 84.0133 9.256 83.672C8.88267 83.3307 8.696 82.888 8.696 82.344C8.696 81.3947 9.10667 80.6747 9.928 80.184C10.7493 79.6827 11.6453 79.352 12.616 79.192C13.0533 79.1173 13.368 79.0373 13.56 78.952C13.752 78.856 13.848 78.696 13.848 78.472C13.848 78.3013 13.736 78.1467 13.512 78.008C13.2987 77.8693 13.064 77.8 12.808 77.8C12.68 77.8 12.504 77.848 12.28 77.944C12.0667 78.04 11.928 78.104 11.864 78.136C11.608 78.264 11.4 78.36 11.24 78.424C11.08 78.488 10.936 78.52 10.808 78.52C10.5733 78.52 10.36 78.3387 10.168 77.976C9.98667 77.6027 9.896 77.208 9.896 76.792C9.896 76.5253 9.91733 76.2747 9.96 76.04C10.0133 75.8053 10.0827 75.5813 10.168 75.368C10.264 75.144 10.328 74.9893 10.36 74.904C10.392 74.808 10.44 74.68 10.504 74.52C10.5787 74.3493 10.6373 74.184 10.68 74.024C10.7333 73.864 10.76 73.6933 10.76 73.512C10.76 73.1707 10.6747 72.8933 10.504 72.68C10.3333 72.4667 10.0827 72.296 9.752 72.168C9.64533 72.1147 9.51733 72.072 9.368 72.04C9.21867 72.008 9.09067 71.992 8.984 71.992C8.824 71.992 8.744 72.0293 8.744 72.104C8.744 72.1253 8.776 72.168 8.84 72.232C8.91467 72.2853 8.98933 72.3493 9.064 72.424C9.30933 72.7013 9.432 73.0693 9.432 73.528C9.432 73.7307 9.41067 73.9493 9.368 74.184C9.336 74.408 9.29333 74.632 9.24 74.856C9.22933 74.9307 9.18667 75.144 9.112 75.496C9.048 75.8373 9.016 76.2213 9.016 76.648C9.016 77.1493 9.08 77.5707 9.208 77.912C9.34667 78.2427 9.56533 78.552 9.864 78.84C9.94933 78.9253 9.992 79.0053 9.992 79.08C9.992 79.1653 9.944 79.24 9.848 79.304C9.24 79.7307 8.744 80.216 8.36 80.76C7.976 81.2933 7.784 81.928 7.784 82.664C7.784 83.6773 8.15733 84.3867 8.904 84.792ZM8.904 106.792C9.66133 107.197 10.5733 107.4 11.64 107.4C12.4507 107.4 13.1227 107.331 13.656 107.192C14.2 107.053 14.472 106.829 14.472 106.52C14.472 106.093 14.136 105.88 13.464 105.88C13.1973 105.88 12.824 105.928 12.344 106.024C11.768 106.131 11.304 106.184 10.952 106.184C10.1947 106.184 9.62933 106.013 9.256 105.672C8.88267 105.331 8.696 104.888 8.696 104.344C8.696 103.395 9.10667 102.675 9.928 102.184C10.7493 101.683 11.6453 101.352 12.616 101.192C13.0533 101.117 13.368 101.037 13.56 100.952C13.752 100.856 13.848 100.696 13.848 100.472C13.848 100.301 13.736 100.147 13.512 100.008C13.2987 99.8693 13.064 99.8 12.808 99.8C12.68 99.8 12.504 99.848 12.28 99.944C12.0667 100.04 11.928 100.104 11.864 100.136C11.608 100.264 11.4 100.36 11.24 100.424C11.08 100.488 10.936 100.52 10.808 100.52C10.5733 100.52 10.36 100.339 10.168 99.976C9.98667 99.6027 9.896 99.208 9.896 98.792C9.896 98.5253 9.91733 98.2747 9.96 98.04C10.0133 97.8053 10.0827 97.5813 10.168 97.368C10.264 97.144 10.328 96.9893 10.36 96.904C10.392 96.808 10.44 96.68 10.504 96.52C10.5787 96.3493 10.6373 96.184 10.68 96.024C10.7333 95.864 10.76 95.6933 10.76 95.512C10.76 95.1707 10.6747 94.8933 10.504 94.68C10.3333 94.4667 10.0827 94.296 9.752 94.168C9.64533 94.1147 9.51733 94.072 9.368 94.04C9.21867 94.008 9.09067 93.992 8.984 93.992C8.824 93.992 8.744 94.0293 8.744 94.104C8.744 94.1253 8.776 94.168 8.84 94.232C8.91467 94.2853 8.98933 94.3493 9.064 94.424C9.30933 94.7013 9.432 95.0693 9.432 95.528C9.432 95.7307 9.41067 95.9493 9.368 96.184C9.336 96.408 9.29333 96.632 9.24 96.856C9.22933 96.9307 9.18667 97.144 9.112 97.496C9.048 97.8373 9.016 98.2213 9.016 98.648C9.016 99.1493 9.08 99.5707 9.208 99.912C9.34667 100.243 9.56533 100.552 9.864 100.84C9.94933 100.925 9.992 101.005 9.992 101.08C9.992 101.165 9.944 101.24 9.848 101.304C9.24 101.731 8.744 102.216 8.36 102.76C7.976 103.293 7.784 103.928 7.784 104.664C7.784 105.677 8.15733 106.387 8.904 106.792ZM14.648 121.448C15.0427 121.149 15.24 120.867 15.24 120.6C15.24 120.429 15.1707 120.312 15.032 120.248C14.904 120.173 14.712 120.136 14.456 120.136L13.992 120.168C13.7573 120.2 13.544 120.216 13.352 120.216C12.8933 120.216 12.4347 120.163 11.976 120.056C11.8267 120.024 11.704 119.939 11.608 119.8L11.576 119.736C11.544 119.672 11.528 119.619 11.528 119.576C11.528 119.469 11.5973 119.379 11.736 119.304L11.928 119.208C12.024 119.155 12.1093 119.085 12.184 119C12.2587 118.915 12.296 118.829 12.296 118.744C12.296 118.616 12.2267 118.504 12.088 118.408C11.96 118.301 11.7947 118.248 11.592 118.248C11.4853 118.248 11.3573 118.269 11.208 118.312C11.144 118.323 11.0747 118.349 11 118.392C10.8613 118.435 10.7387 118.371 10.632 118.2C10.2587 117.571 10.024 117.171 9.928 117C9.608 116.499 9.17067 116.248 8.616 116.248C8.424 116.248 8.216 116.285 7.992 116.36C7.768 116.435 7.656 116.531 7.656 116.648C7.656 116.701 7.68267 116.749 7.736 116.792C7.78933 116.824 7.86933 116.867 7.976 116.92C8.08267 116.963 8.184 117.011 8.28 117.064C8.86667 117.363 9.41067 117.816 9.912 118.424C9.976 118.499 10.008 118.573 10.008 118.648C10.008 118.755 9.93867 118.835 9.8 118.888C9.50133 118.995 9.24 119.048 9.016 119.048C8.76 119.048 8.49867 119 8.232 118.904C7.976 118.797 7.79467 118.701 7.688 118.616C7.464 118.456 7.32 118.376 7.256 118.376C7.21333 118.376 7.192 118.397 7.192 118.44C7.192 118.461 7.208 118.499 7.24 118.552C7.272 118.605 7.29867 118.648 7.32 118.68C7.58667 119.096 7.88 119.416 8.2 119.64C8.52 119.864 8.888 119.976 9.304 119.976C9.64533 119.976 10.0453 119.912 10.504 119.784C10.568 119.763 10.616 119.752 10.648 119.752C10.776 119.752 10.872 119.821 10.936 119.96L10.984 120.04L11.624 121.224C11.656 121.288 11.672 121.347 11.672 121.4C11.672 121.539 11.592 121.624 11.432 121.656C10.696 121.859 10.0613 121.96 9.528 121.96C9.03733 121.96 8.552 121.875 8.072 121.704C7.592 121.533 7.24533 121.373 7.032 121.224C6.92533 121.16 6.84533 121.128 6.792 121.128C6.74933 121.128 6.728 121.144 6.728 121.176C6.728 121.229 6.76 121.309 6.824 121.416C6.888 121.523 6.97867 121.635 7.096 121.752C7.82133 122.52 8.78667 122.904 9.992 122.904C10.5573 122.904 11.2347 122.803 12.024 122.6C12.216 122.547 12.36 122.611 12.456 122.792L12.696 123.24C12.9947 123.795 13.1707 124.136 13.224 124.264C13.3093 124.435 13.352 124.584 13.352 124.712C13.352 124.925 13.1653 125.032 12.792 125.032C12.7493 125.032 12.568 125.011 12.248 124.968C11.5227 124.861 11.0213 124.808 10.744 124.808C9.73067 124.808 8.87733 125.021 8.184 125.448C7.49067 125.864 7.144 126.461 7.144 127.24C7.144 127.912 7.44267 128.467 8.04 128.904C8.648 129.341 9.47467 129.571 10.52 129.592C11.0747 129.592 11.544 129.56 11.928 129.496C12.0987 129.464 12.2267 129.389 12.312 129.272C12.408 129.155 12.456 129.027 12.456 128.888C12.456 128.632 12.3173 128.44 12.04 128.312C11.7627 128.173 11.432 128.104 11.048 128.104C10.9413 128.104 10.76 128.125 10.504 128.168C10.184 128.232 9.90667 128.264 9.672 128.264C9.17067 128.264 8.74933 128.152 8.408 127.928C8.06667 127.704 7.896 127.352 7.896 126.872C7.896 126.381 8.12533 126.003 8.584 125.736C9.05333 125.459 9.62933 125.32 10.312 125.32C10.8453 125.32 11.3787 125.416 11.912 125.608C12.4453 125.789 12.9093 126.061 13.304 126.424C13.5493 126.648 13.7467 126.76 13.896 126.76C14.0133 126.76 14.1413 126.691 14.28 126.552C14.4293 126.403 14.5573 126.221 14.664 126.008C14.7707 125.795 14.824 125.603 14.824 125.432C14.824 125.229 14.7813 125.032 14.696 124.84C14.6107 124.637 14.4667 124.381 14.264 124.072L13.976 123.608L13.32 122.568C13.2773 122.493 13.256 122.424 13.256 122.36C13.256 122.253 13.32 122.168 13.448 122.104C13.96 121.891 14.36 121.672 14.648 121.448ZM12.296 120.456C12.3387 120.456 12.376 120.461 12.408 120.472L12.872 120.616C13.0213 120.648 13.096 120.712 13.096 120.808C13.096 120.904 12.984 121.027 12.76 121.176L12.648 121.24C12.5733 121.272 12.4773 121.197 12.36 121.016L12.232 120.808C12.1893 120.733 12.168 120.664 12.168 120.6C12.168 120.504 12.2107 120.456 12.296 120.456ZM14.792 141.944C15.1333 142.147 15.5067 142.248 15.912 142.248C16.3173 142.248 16.6907 142.147 17.032 141.944C17.3733 141.741 17.64 141.469 17.832 141.128C18.0347 140.787 18.136 140.408 18.136 139.992C18.136 139.587 18.0347 139.213 17.832 138.872C17.64 138.531 17.3733 138.264 17.032 138.072C16.6907 137.869 16.3173 137.768 15.912 137.768C15.5067 137.768 15.1333 137.869 14.792 138.072C14.4507 138.264 14.1787 138.531 13.976 138.872C13.7733 139.213 13.672 139.587 13.672 139.992C13.672 140.408 13.7733 140.787 13.976 141.128C14.1787 141.469 14.4507 141.741 14.792 141.944ZM17.128 141.224C16.7973 141.565 16.392 141.736 15.912 141.736C15.432 141.736 15.0213 141.571 14.68 141.24C14.3387 140.899 14.168 140.483 14.168 139.992C14.168 139.523 14.3387 139.123 14.68 138.792C15.0213 138.451 15.432 138.28 15.912 138.28C16.3813 138.28 16.7867 138.451 17.128 138.792C17.4693 139.123 17.64 139.523 17.64 139.992C17.64 140.472 17.4693 140.883 17.128 141.224Z" fill="white"/>
<path fill-rule="evenodd" clip-rule="evenodd" d="M56 0H33V110H56V0ZM42.996 11.432C42.996 11.4747 43.0227 11.496 43.076 11.496C43.1293 11.496 43.2093 11.4587 43.316 11.384C44.3187 10.6053 45.3213 10.152 46.324 10.024C46.708 9.97067 46.964 9.912 47.092 9.848C47.2307 9.77333 47.3 9.65067 47.3 9.48C47.3 9.27733 47.2147 9.08 47.044 8.888C46.8733 8.696 46.6867 8.568 46.484 8.504C46.388 8.46133 46.2547 8.44 46.084 8.44C45.924 8.44 45.652 8.46133 45.268 8.504C44.8947 8.55733 44.5747 8.584 44.308 8.584C43.9453 8.584 43.5667 8.54667 43.172 8.472C42.7773 8.38667 42.4627 8.28533 42.228 8.168C42.0573 8.08267 41.9187 8.008 41.812 7.944L41.732 7.912C41.7107 7.912 41.7 7.93867 41.7 7.992C41.7 8.10933 41.764 8.248 41.892 8.408C42.0733 8.64267 42.3347 8.888 42.676 9.144C43.0173 9.38933 43.396 9.56 43.812 9.656C44.292 9.76267 44.532 9.85333 44.532 9.928C44.532 9.992 44.2867 10.2267 43.796 10.632C43.3693 11.0053 43.1347 11.2133 43.092 11.256C43.028 11.32 42.996 11.3787 42.996 11.432ZM42.596 18.712C43.2787 18.8507 44.02 18.92 44.82 18.92C45.4067 18.92 45.9667 18.888 46.5 18.824C47.0333 18.76 47.46 18.68 47.78 18.584C48.356 18.4027 48.644 18.1413 48.644 17.8C48.644 17.5867 48.548 17.416 48.356 17.288C48.1747 17.1493 47.9293 17.08 47.62 17.08C47.524 17.08 47.188 17.1227 46.612 17.208C45.588 17.4 44.6973 17.496 43.94 17.496C43.1827 17.496 42.5373 17.4053 42.004 17.224C41.2147 16.9467 40.82 16.4933 40.82 15.864C40.82 15.8 40.8253 15.736 40.836 15.672C40.8467 15.608 40.852 15.544 40.852 15.48C40.852 15.32 40.8147 15.24 40.74 15.24C40.6547 15.24 40.5533 15.3947 40.436 15.704C40.372 15.928 40.34 16.184 40.34 16.472C40.34 17.1227 40.5693 17.6347 41.028 18.008C41.4013 18.3387 41.924 18.5733 42.596 18.712ZM47.508 30.376C46.6013 30.0027 45.6893 29.816 44.772 29.816C43.6947 29.816 42.6547 30.0613 41.652 30.552C40.66 31.0427 39.8493 31.7413 39.22 32.648C38.6013 33.5547 38.292 34.5947 38.292 35.768C38.292 36.4187 38.3933 37.0587 38.596 37.688C38.8093 38.3173 39.0867 38.8293 39.428 39.224C39.78 39.6187 40.1533 39.816 40.548 39.816C40.8147 39.816 41.1613 39.6347 41.588 39.272C42.0147 38.9093 42.452 38.3867 42.9 37.704C43.3587 37.0213 43.7587 36.2267 44.1 35.32C44.292 34.8293 44.436 34.3387 44.532 33.848C44.628 33.3467 44.676 32.8933 44.676 32.488C44.676 32.2213 44.6493 31.928 44.596 31.608C44.5427 31.288 44.468 30.9893 44.372 30.712C44.3293 30.5733 44.404 30.4453 44.596 30.328C45.3107 30.328 46.0307 30.4827 46.756 30.792C47.4813 31.1013 48.0947 31.624 48.596 32.36C49.0973 33.0853 49.348 34.04 49.348 35.224C49.348 36.856 48.7773 38.1413 47.636 39.08C46.5053 40.008 45.044 40.6213 43.252 40.92C43.1133 40.9413 42.9747 40.968 42.836 41C42.6973 41.0427 42.628 41.0853 42.628 41.128C42.628 41.1493 42.66 41.1653 42.724 41.176C42.788 41.1973 42.8573 41.208 42.932 41.208C43.892 41.208 44.9587 41.0533 46.132 40.744C47.316 40.424 48.372 39.8267 49.3 38.952C50.228 38.0667 50.692 36.8507 50.692 35.304C50.692 34.0347 50.388 32.9893 49.78 32.168C49.172 31.3467 48.4147 30.7493 47.508 30.376ZM44.036 30.664C44.1 30.9307 44.132 31.2347 44.132 31.576C44.132 32.3653 44.0093 33.1387 43.764 33.896C43.5187 34.6427 43.108 35.464 42.532 36.36C42.2013 36.872 41.8547 37.32 41.492 37.704C41.14 38.088 40.836 38.28 40.58 38.28C40.4627 38.28 40.3027 38.1787 40.1 37.976C39.908 37.7733 39.732 37.464 39.572 37.048C39.4227 36.6213 39.348 36.104 39.348 35.496C39.348 34.6427 39.54 33.8587 39.924 33.144C40.308 32.4187 40.8253 31.8213 41.476 31.352C42.1267 30.872 42.8467 30.5573 43.636 30.408C43.86 30.376 43.9933 30.4613 44.036 30.664ZM48.74 55.944C48.644 56.0827 48.5107 56.152 48.34 56.152H39.492C38.756 56.1307 38.2067 56.104 37.844 56.072C37.748 56.0613 37.6733 56.0773 37.62 56.12C37.5667 56.152 37.54 56.2 37.54 56.264C37.54 56.328 37.556 56.392 37.588 56.456L37.684 56.648C37.748 56.7867 37.8547 56.856 38.004 56.856H38.1C38.8573 56.7493 39.5613 56.6907 40.212 56.68H51.124C51.2947 56.68 51.4173 56.6533 51.492 56.6C51.556 56.5467 51.588 56.488 51.588 56.424C51.588 56.36 51.5613 56.3013 51.508 56.248C51.3267 56.0133 51.0013 55.6933 50.532 55.288C50.0733 54.872 49.8013 54.664 49.716 54.664C49.6733 54.664 49.6093 54.712 49.524 54.808C49.4493 54.904 49.3693 55.016 49.284 55.144L49.092 55.416L48.74 55.944ZM48.452 73.384C48.356 73.5333 48.2173 73.608 48.036 73.608H40.708C40.5587 73.608 40.4253 73.5813 40.308 73.528L39.364 73.128C39.3213 73.1067 39.268 73.096 39.204 73.096C39.0653 73.096 38.996 73.1813 38.996 73.352V73.416C39.092 74.248 39.14 75.1867 39.14 76.232V84.408C39.14 84.5147 39.108 84.6 39.044 84.664C38.9907 84.7173 38.9107 84.744 38.804 84.744H38.516C38.1533 84.7227 37.876 84.7013 37.684 84.68C37.4707 84.6587 37.364 84.7227 37.364 84.872C37.364 84.9253 37.38 84.984 37.412 85.048L37.476 85.192C37.54 85.3307 37.6467 85.4 37.796 85.4H37.892C38.6493 85.2933 39.3533 85.2347 40.004 85.224H51.316C51.4333 85.224 51.5293 85.1973 51.604 85.144C51.668 85.1013 51.7 85.0427 51.7 84.968C51.7 84.9253 51.6787 84.8613 51.636 84.776C51.508 84.5627 51.3053 84.3013 51.028 83.992C50.7613 83.6827 50.5907 83.528 50.516 83.528C50.4733 83.528 50.4307 83.5547 50.388 83.608C50.3453 83.6613 50.292 83.7467 50.228 83.864C50.1747 83.9813 50.1267 84.072 50.084 84.136L49.78 84.744H49.748C49.7373 84.7333 49.7267 84.7013 49.716 84.648C49.7053 84.584 49.7 84.504 49.7 84.408V74.552C49.7 74.3707 49.8013 74.2533 50.004 74.2C50.1213 74.1467 50.1853 74.12 50.196 74.12C50.292 74.0667 50.34 73.9973 50.34 73.912C50.34 73.848 50.3187 73.7893 50.276 73.736C50.116 73.544 49.876 73.3253 49.556 73.08C49.2467 72.824 49.0493 72.696 48.964 72.696C48.9213 72.696 48.8787 72.7173 48.836 72.76C48.804 72.8027 48.7613 72.872 48.708 72.968C48.6547 73.0533 48.612 73.1173 48.58 73.16L48.452 73.384ZM42.148 74.168C42.212 74.2213 42.244 74.3013 42.244 74.408V84.408C42.244 84.5147 42.212 84.6 42.148 84.664C42.0947 84.7173 42.0147 84.744 41.908 84.744H40.676C40.5693 84.744 40.484 84.7173 40.42 84.664C40.3667 84.6 40.34 84.5147 40.34 84.408V74.408C40.34 74.3013 40.3667 74.2213 40.42 74.168C40.484 74.104 40.5693 74.072 40.676 74.072H41.908C42.0147 74.072 42.0947 74.104 42.148 74.168ZM45.236 84.664C45.1827 84.7173 45.1027 84.744 44.996 84.744H43.732C43.6253 84.744 43.54 84.7173 43.476 84.664C43.4227 84.6 43.396 84.5147 43.396 84.408V74.408C43.396 74.3013 43.4227 74.2213 43.476 74.168C43.54 74.104 43.6253 74.072 43.732 74.072H44.996C45.1027 74.072 45.1827 74.104 45.236 74.168C45.3 74.2213 45.332 74.3013 45.332 74.408V84.408C45.332 84.5147 45.3 84.6 45.236 84.664ZM48.372 84.664C48.3187 84.7173 48.2387 84.744 48.132 84.744H46.836C46.7293 84.744 46.644 84.7173 46.58 84.664C46.5267 84.6 46.5 84.5147 46.5 84.408V74.408C46.5 74.3013 46.5267 74.2213 46.58 74.168C46.644 74.104 46.7293 74.072 46.836 74.072H48.132C48.2387 74.072 48.3187 74.104 48.372 74.168C48.436 74.2213 48.468 74.3013 48.468 74.408V84.408C48.468 84.5147 48.436 84.6 48.372 84.664ZM49.156 95.32C49.476 95.7467 49.8173 96.264 50.18 96.872C50.404 97.256 50.6547 97.448 50.932 97.448C51.1133 97.448 51.2787 97.3733 51.428 97.224C51.588 97.0747 51.668 96.856 51.668 96.568C51.668 96.1627 51.4547 95.7733 51.028 95.4C50.612 95.016 50.1267 94.6907 49.572 94.424C49.0173 94.1573 48.564 93.9813 48.212 93.896C48.0947 93.864 47.9987 93.848 47.924 93.848C47.8387 93.848 47.796 93.8747 47.796 93.928C47.796 93.96 47.8333 94.0027 47.908 94.056C47.9827 94.1093 48.0413 94.152 48.084 94.184C48.4893 94.5147 48.8467 94.8933 49.156 95.32Z" fill="white"/>
<path fill-rule="evenodd" clip-rule="evenodd" d="M89 0H66V88H89V0ZM75.998 11.432C75.998 11.4747 76.0246 11.496 76.078 11.496C76.1313 11.496 76.2113 11.4587 76.318 11.384C77.3206 10.6053 78.3233 10.152 79.326 10.024C79.71 9.97067 79.966 9.912 80.094 9.848C80.2326 9.77333 80.302 9.65067 80.302 9.48C80.302 9.27733 80.2166 9.08 80.046 8.888C79.8753 8.696 79.6886 8.568 79.486 8.504C79.39 8.46133 79.2566 8.44 79.086 8.44C78.926 8.44 78.654 8.46133 78.27 8.504C77.8966 8.55733 77.5766 8.584 77.31 8.584C76.9473 8.584 76.5686 8.54667 76.174 8.472C75.7793 8.38667 75.4646 8.28533 75.23 8.168C75.0593 8.08267 74.9206 8.008 74.814 7.944L74.734 7.912C74.7126 7.912 74.702 7.93867 74.702 7.992C74.702 8.10933 74.766 8.248 74.894 8.408C75.0753 8.64267 75.3366 8.888 75.678 9.144C76.0193 9.38933 76.398 9.56 76.814 9.656C77.294 9.76267 77.534 9.85333 77.534 9.928C77.534 9.992 77.2886 10.2267 76.798 10.632C76.3713 11.0053 76.1366 11.2133 76.094 11.256C76.03 11.32 75.998 11.3787 75.998 11.432ZM75.598 18.712C76.2806 18.8507 77.022 18.92 77.822 18.92C78.4086 18.92 78.9686 18.888 79.502 18.824C80.0353 18.76 80.462 18.68 80.782 18.584C81.358 18.4027 81.646 18.1413 81.646 17.8C81.646 17.5867 81.55 17.416 81.358 17.288C81.1766 17.1493 80.9313 17.08 80.622 17.08C80.526 17.08 80.19 17.1227 79.614 17.208C78.59 17.4 77.6993 17.496 76.942 17.496C76.1846 17.496 75.5393 17.4053 75.006 17.224C74.2166 16.9467 73.822 16.4933 73.822 15.864C73.822 15.8 73.8273 15.736 73.838 15.672C73.8486 15.608 73.854 15.544 73.854 15.48C73.854 15.32 73.8166 15.24 73.742 15.24C73.6566 15.24 73.5553 15.3947 73.438 15.704C73.374 15.928 73.342 16.184 73.342 16.472C73.342 17.1227 73.5713 17.6347 74.03 18.008C74.4033 18.3387 74.926 18.5733 75.598 18.712ZM80.51 30.376C79.6033 30.0027 78.6913 29.816 77.774 29.816C76.6966 29.816 75.6566 30.0613 74.654 30.552C73.662 31.0427 72.8513 31.7413 72.222 32.648C71.6033 33.5547 71.294 34.5947 71.294 35.768C71.294 36.4187 71.3953 37.0587 71.598 37.688C71.8113 38.3173 72.0886 38.8293 72.43 39.224C72.782 39.6187 73.1553 39.816 73.55 39.816C73.8166 39.816 74.1633 39.6347 74.59 39.272C75.0166 38.9093 75.454 38.3867 75.902 37.704C76.3606 37.0213 76.7606 36.2267 77.102 35.32C77.294 34.8293 77.438 34.3387 77.534 33.848C77.63 33.3467 77.678 32.8933 77.678 32.488C77.678 32.2213 77.6513 31.928 77.598 31.608C77.5446 31.288 77.47 30.9893 77.374 30.712C77.3313 30.5733 77.406 30.4453 77.598 30.328C78.3126 30.328 79.0326 30.4827 79.758 30.792C80.4833 31.1013 81.0966 31.624 81.598 32.36C82.0993 33.0853 82.35 34.04 82.35 35.224C82.35 36.856 81.7793 38.1413 80.638 39.08C79.5073 40.008 78.046 40.6213 76.254 40.92C76.1153 40.9413 75.9766 40.968 75.838 41C75.6993 41.0427 75.63 41.0853 75.63 41.128C75.63 41.1493 75.662 41.1653 75.726 41.176C75.79 41.1973 75.8593 41.208 75.934 41.208C76.894 41.208 77.9606 41.0533 79.134 40.744C80.318 40.424 81.374 39.8267 82.302 38.952C83.23 38.0667 83.694 36.8507 83.694 35.304C83.694 34.0347 83.39 32.9893 82.782 32.168C82.174 31.3467 81.4166 30.7493 80.51 30.376ZM77.038 30.664C77.102 30.9307 77.134 31.2347 77.134 31.576C77.134 32.3653 77.0113 33.1387 76.766 33.896C76.5206 34.6427 76.11 35.464 75.534 36.36C75.2033 36.872 74.8566 37.32 74.494 37.704C74.142 38.088 73.838 38.28 73.582 38.28C73.4646 38.28 73.3046 38.1787 73.102 37.976C72.91 37.7733 72.734 37.464 72.574 37.048C72.4246 36.6213 72.35 36.104 72.35 35.496C72.35 34.6427 72.542 33.8587 72.926 33.144C73.31 32.4187 73.8273 31.8213 74.478 31.352C75.1286 30.872 75.8486 30.5573 76.638 30.408C76.862 30.376 76.9953 30.4613 77.038 30.664ZM81.822 50.184C81.726 50.3333 81.5926 50.408 81.422 50.408H77.406C77.2566 50.408 77.1233 50.3813 77.006 50.328L76.11 49.944C76.0673 49.9227 76.014 49.912 75.95 49.912C75.8113 49.912 75.742 49.992 75.742 50.152V50.216C75.8273 51.0693 75.87 51.9547 75.87 52.872V53.896C75.8486 54.5787 75.8166 55.144 75.774 55.592C75.774 55.6773 75.8006 55.752 75.854 55.816C75.9073 55.88 75.9766 55.912 76.062 55.912C76.3286 55.912 76.5526 55.8747 76.734 55.8C76.926 55.7147 77.022 55.64 77.022 55.576V55.304C77.022 55.1973 77.0486 55.1173 77.102 55.064C77.166 55 77.2513 54.968 77.358 54.968H81.406C81.5126 54.968 81.5926 55 81.646 55.064C81.71 55.1173 81.742 55.1973 81.742 55.304V55.384C81.742 55.4907 81.758 55.576 81.79 55.64C81.8326 55.6933 81.8806 55.72 81.934 55.72C82.286 55.72 82.6006 55.6347 82.878 55.464C82.9846 55.4 83.038 55.2933 83.038 55.144V55.064C83.006 54.5093 82.974 53.6347 82.942 52.44V51.256C82.942 51.0747 83.038 50.9467 83.23 50.872C83.2513 50.872 83.2833 50.8613 83.326 50.84C83.4113 50.7867 83.454 50.7173 83.454 50.632C83.454 50.568 83.4326 50.5147 83.39 50.472C83.262 50.2907 83.07 50.0933 82.814 49.88C82.5686 49.6667 82.4086 49.56 82.334 49.56C82.2913 49.56 82.2486 49.5813 82.206 49.624C82.174 49.6667 82.1313 49.7307 82.078 49.816C82.0246 49.8907 81.982 49.9493 81.95 49.992L81.822 50.184ZM71.47 49.704C71.4166 49.736 71.4753 49.8373 71.646 50.008C71.8913 50.2533 72.126 50.536 72.35 50.856C72.574 51.1653 72.75 51.464 72.878 51.752C72.9526 51.9227 73.0486 52.0293 73.166 52.072C73.2726 52.0933 73.3526 52.104 73.406 52.104C73.5873 52.104 73.7313 52.0453 73.838 51.928C73.9553 51.8 74.014 51.64 74.014 51.448C74.014 51.1067 73.8326 50.7707 73.47 50.44C73.118 50.1093 72.5633 49.8587 71.806 49.688C71.7526 49.6773 71.6833 49.672 71.598 49.672C71.534 49.672 71.4913 49.6827 71.47 49.704ZM81.646 52.376C81.5926 52.4293 81.5126 52.456 81.406 52.456H77.358C77.2513 52.456 77.166 52.4293 77.102 52.376C77.0486 52.312 77.022 52.2267 77.022 52.12V51.208C77.022 51.1013 77.0486 51.0213 77.102 50.968C77.166 50.904 77.2513 50.872 77.358 50.872H81.406C81.5126 50.872 81.5926 50.904 81.646 50.968C81.71 51.0213 81.742 51.1013 81.742 51.208V52.12C81.742 52.2267 81.71 52.312 81.646 52.376ZM70.91 59.656C70.686 59.656 70.574 59.7147 70.574 59.832C70.574 59.928 70.6806 60.0027 70.894 60.056C71.0646 60.088 71.214 60.152 71.342 60.248C71.4486 60.3227 71.5286 60.4933 71.582 60.76C71.6353 61.0267 71.662 61.368 71.662 61.784C71.662 62.232 71.63 62.728 71.566 63.272C71.5553 63.336 71.55 63.416 71.55 63.512C71.55 63.5867 71.5553 63.6453 71.566 63.688C71.6086 63.88 71.678 64.024 71.774 64.12C71.87 64.2267 71.982 64.28 72.11 64.28C72.4086 64.28 72.638 64.1573 72.798 63.912C72.958 63.6773 73.038 63.3467 73.038 62.92C73.038 62.6107 73.0166 62.344 72.974 62.12C72.9313 61.8853 72.8673 61.5867 72.782 61.224C72.6646 60.7973 72.606 60.4667 72.606 60.232C72.606 59.9653 72.6806 59.5227 72.83 58.904C72.926 58.5627 73.1873 57.7467 73.614 56.456C74.0406 55.1547 74.4406 53.9387 74.814 52.808C74.846 52.7227 74.862 52.6533 74.862 52.6C74.862 52.4933 74.8246 52.44 74.75 52.44C74.6646 52.44 74.5793 52.536 74.494 52.728L73.95 54.008C73.7366 54.5093 73.4433 55.2027 73.07 56.088C72.7073 56.9627 72.4086 57.6667 72.174 58.2C71.95 58.7333 71.774 59.1067 71.646 59.32C71.582 59.48 71.5286 59.576 71.486 59.608C71.4433 59.64 71.3633 59.656 71.246 59.656H70.91ZM77.102 53C77.166 52.936 77.2513 52.904 77.358 52.904H81.406C81.5126 52.904 81.5926 52.936 81.646 53C81.71 53.0533 81.742 53.1333 81.742 53.24V54.168C81.742 54.2747 81.71 54.36 81.646 54.424C81.5926 54.4773 81.5126 54.504 81.406 54.504H77.358C77.2513 54.504 77.166 54.4773 77.102 54.424C77.0486 54.36 77.022 54.2747 77.022 54.168V53.24C77.022 53.1333 77.0486 53.0533 77.102 53ZM70.414 53.4C70.4566 53.4533 70.5153 53.512 70.59 53.576C70.8246 53.8 71.0433 54.056 71.246 54.344C71.4486 54.6213 71.598 54.8933 71.694 55.16C71.7473 55.32 71.838 55.4267 71.966 55.48C72.062 55.512 72.1473 55.528 72.222 55.528C72.3926 55.528 72.5313 55.464 72.638 55.336C72.7446 55.208 72.798 55.048 72.798 54.856C72.798 54.536 72.6273 54.2267 72.286 53.928C71.9553 53.6187 71.438 53.4 70.734 53.272C70.6806 53.2613 70.6113 53.256 70.526 53.256C70.462 53.256 70.4193 53.2667 70.398 53.288C70.3766 53.3093 70.382 53.3467 70.414 53.4ZM82.702 56.296C82.606 56.4347 82.4726 56.504 82.302 56.504H75.966C75.23 56.4827 74.6806 56.456 74.318 56.424C74.1046 56.4027 73.998 56.472 73.998 56.632C73.998 56.6853 74.014 56.744 74.046 56.808L74.11 56.92C74.1846 57.0587 74.286 57.128 74.414 57.128C74.4673 57.128 74.51 57.1227 74.542 57.112C74.926 57.0267 75.31 56.9787 75.694 56.968H76.062C76.2646 56.968 76.366 57.0427 76.366 57.192C76.366 57.2453 76.35 57.304 76.318 57.368C75.6246 58.68 74.7393 59.752 73.662 60.584C73.5233 60.6907 73.454 60.7813 73.454 60.856C73.454 60.8773 73.4593 60.8933 73.47 60.904C73.4913 60.9467 73.5286 60.968 73.582 60.968C73.6353 60.968 73.7153 60.9413 73.822 60.888C74.8033 60.344 75.646 59.7147 76.35 59C76.4673 58.8827 76.606 58.824 76.766 58.824H77.422C77.5073 58.824 77.5766 58.8453 77.63 58.888C77.6833 58.92 77.71 58.968 77.71 59.032C77.71 59.1067 77.6886 59.1707 77.646 59.224C76.878 60.4507 75.87 61.448 74.622 62.216C74.4726 62.312 74.398 62.392 74.398 62.456C74.398 62.488 74.4033 62.5093 74.414 62.52C74.446 62.5733 74.494 62.6 74.558 62.6C74.5793 62.6 74.654 62.5787 74.782 62.536C76.6593 61.6827 78.0673 60.52 79.006 59.048C79.1126 58.8987 79.2513 58.824 79.422 58.824H79.934C80.03 58.824 80.1046 58.8453 80.158 58.888C80.2113 58.9307 80.238 58.9893 80.238 59.064C80.238 59.096 80.2273 59.144 80.206 59.208C79.79 60.2533 79.198 61.1653 78.43 61.944C77.662 62.712 76.702 63.3573 75.55 63.88C75.39 63.9653 75.31 64.0507 75.31 64.136V64.168C75.3206 64.2107 75.3686 64.232 75.454 64.232C75.55 64.232 75.6246 64.2213 75.678 64.2C77.2033 63.6667 78.4406 62.9893 79.39 62.168C80.35 61.336 81.0753 60.312 81.566 59.096C81.63 58.9147 81.758 58.824 81.95 58.824H82.382C82.5953 58.824 82.702 58.9307 82.702 59.144V59.192C82.5953 60.1413 82.4566 60.9253 82.286 61.544C82.126 62.152 81.95 62.5307 81.758 62.68C81.6833 62.7333 81.6033 62.7707 81.518 62.792C81.4433 62.8133 81.342 62.824 81.214 62.824C80.958 62.824 80.4566 62.792 79.71 62.728C79.4753 62.7067 79.358 62.7387 79.358 62.824C79.358 62.9093 79.4593 62.9733 79.662 63.016C80.1313 63.1227 80.4513 63.256 80.622 63.416C80.7286 63.5013 80.8086 63.672 80.862 63.928C80.894 64.1413 80.9953 64.248 81.166 64.248H81.214C81.7366 64.1947 82.1793 64.0347 82.542 63.768C83.2353 63.224 83.694 61.7307 83.918 59.288C83.9286 59.1813 83.9606 59.1013 84.014 59.048C84.0673 58.9947 84.142 58.952 84.238 58.92C84.27 58.92 84.3073 58.9093 84.35 58.888C84.446 58.856 84.494 58.792 84.494 58.696C84.494 58.632 84.4726 58.5733 84.43 58.52C84.302 58.3493 84.1046 58.1627 83.838 57.96C83.582 57.7467 83.4166 57.64 83.342 57.64C83.2993 57.64 83.2566 57.656 83.214 57.688C83.1713 57.72 83.118 57.7733 83.054 57.848C83.0006 57.912 82.958 57.96 82.926 57.992L82.782 58.152C82.686 58.28 82.5473 58.344 82.366 58.344H77.438C77.3526 58.344 77.2833 58.328 77.23 58.296C77.1766 58.2533 77.15 58.2053 77.15 58.152C77.15 58.0987 77.1766 58.0293 77.23 57.944C77.4433 57.624 77.5926 57.3787 77.678 57.208C77.774 57.048 77.9073 56.968 78.078 56.968H84.286C84.4033 56.968 84.4993 56.9413 84.574 56.888C84.638 56.8347 84.67 56.776 84.67 56.712C84.67 56.6587 84.6433 56.5947 84.59 56.52C84.4513 56.3493 84.2326 56.1467 83.934 55.912C83.6353 55.6667 83.4433 55.544 83.358 55.544C83.3153 55.544 83.2726 55.5653 83.23 55.608C83.1873 55.6507 83.1286 55.72 83.054 55.816C82.99 55.9013 82.9366 55.9707 82.894 56.024L82.702 56.296ZM82.158 73.32C82.478 73.7467 82.8193 74.264 83.182 74.872C83.406 75.256 83.6566 75.448 83.934 75.448C84.1153 75.448 84.2806 75.3733 84.43 75.224C84.59 75.0747 84.67 74.856 84.67 74.568C84.67 74.1627 84.4566 73.7733 84.03 73.4C83.614 73.016 83.1286 72.6907 82.574 72.424C82.0193 72.1573 81.566 71.9813 81.214 71.896C81.0966 71.864 81.0006 71.848 80.926 71.848C80.8406 71.848 80.798 71.8747 80.798 71.928C80.798 71.96 80.8353 72.0027 80.91 72.056C80.9846 72.1093 81.0433 72.152 81.086 72.184C81.4913 72.5147 81.8486 72.8933 82.158 73.32Z" fill="white"/>
</svg>
