<svg width="413" height="122" viewBox="0 0 413 122" fill="none" xmlns="http://www.w3.org/2000/svg">
<path d="M14.304 57.52C16.096 57.904 18.016 57.648 19.936 56.88C28.384 53.68 36.448 50.736 44.128 48.432C45.28 40.624 45.28 32.688 44.256 24.24C44 22.448 43.488 20.784 42.592 19.12L39.392 13.872C38.624 12.464 38.624 11.312 39.52 10.416C42.08 6.95999 44.768 4.39999 47.328 2.22399C48.864 1.2 50.528 0.815994 52.32 0.943993C56.416 1.96799 60.128 3.24799 63.712 4.784C65.632 5.67999 66.144 6.95999 65.12 9.13599C62.688 20.528 61.024 31.536 59.744 42.416C65.248 39.728 71.264 37.296 77.664 34.736C79.2 34.096 80.864 34.224 82.528 35.248C87.904 38.064 93.152 42.16 98.272 47.024C99.168 47.92 99.296 48.944 98.656 50.096L96.48 53.808C95.328 55.6 93.664 56.752 91.488 57.136C81.632 58.032 71.776 58.416 61.92 58.16L54.624 62.768C63.456 66.864 71.776 72.112 79.584 78.512C91.616 87.856 104.16 96.432 117.088 103.728C118.368 104.368 119.136 105.648 119.392 107.44C119.776 111.408 119.264 115.248 117.728 119.088C116.832 121.008 115.424 121.776 113.376 121.52C104.8 119.856 96.864 117.936 89.44 115.504C86.368 114.48 83.68 112.688 81.376 110C74.208 101.552 67.68 92.336 61.408 82.736C58.592 79.024 55.52 76.08 52.064 74.288C46.688 90.16 37.344 103.344 24.032 114.096C21.6 115.504 19.296 115.76 16.736 114.864C10.336 111.664 4.96 107.056 0.736 101.168C0.0960002 99.888 0.992 97.456 3.552 94.128C3.552 98.096 3.296 100.144 2.784 100.144C2.144 100.144 3.168 100.144 5.728 100.144L4.064 98.736C5.472 99.76 7.136 100.016 8.8 99.632C11.232 98.992 13.536 97.968 15.584 96.816C25.952 89.52 33.376 80.176 37.984 69.04C30.176 68.784 22.24 67.376 14.304 64.816C12.64 64.432 12 63.408 12.512 61.744C12.896 60.208 13.408 58.928 14.304 57.52ZM173.664 93.36C173.536 93.36 175.2 93.104 178.528 92.72C181.856 92.336 183.776 92.208 184.16 92.08L183.648 84.272C180.064 87.088 176.608 90.288 173.664 93.36ZM172.384 68.656C172.64 74.544 172.768 81.072 172.768 88.24C175.2 84.016 178.656 79.792 183.264 75.44L183.008 68.272L179.04 68.784C175.584 68.784 173.28 68.784 172.384 68.656ZM164.704 38.576L168.8 44.208C169.952 45.232 170.464 46.64 170.592 48.304C170.592 51.888 170.976 55.472 171.744 59.312C175.712 57.776 179.552 56.496 183.392 55.472L184.032 46.768C182.752 43.184 182.112 39.6 181.984 36.272C180.064 37.04 177.76 37.552 175.2 37.808L164.704 38.576ZM200.16 70.96C199.52 77.616 199.136 83.888 198.752 89.648C202.592 88.496 206.688 87.856 210.784 87.728L215.776 89.392C217.824 79.28 219.232 69.552 220.256 59.824C213.088 62.256 206.432 65.84 200.16 70.96ZM192.608 33.456C196.32 35.376 199.904 37.808 203.744 40.88C204.512 41.776 204.768 42.8 204.64 43.824C204.512 44.592 204.384 45.872 204.128 47.664C203.744 49.456 203.616 50.352 203.488 50.48L212.192 49.712C213.472 49.072 214.88 49.072 216.032 49.584C218.336 50.352 220 51.376 221.408 52.656L224.992 28.72L220.128 26.544C218.976 25.904 217.824 25.648 216.288 25.904C207.712 28.976 199.776 31.664 192.608 33.456ZM159.84 32.048L162.528 29.872L226.016 15.408C228.704 14.768 230.88 15.152 232.928 16.304C241.248 21.68 247.648 28.464 252.128 36.912C252.768 38.704 252.64 40.368 251.616 42.032C250.08 44.208 249.056 46.896 248.672 49.84C246.496 67.248 243.552 84.144 239.456 100.784C239.072 102.832 238.048 104.24 236.128 105.136L232.672 107.44C229.728 109.36 227.168 109.232 224.48 107.184L214.112 102.704C200.416 102.576 186.72 103.216 173.28 104.624C172.896 106.16 171.744 107.312 169.952 108.336C165.6 106.032 162.912 102.32 161.632 97.584C158.816 90.032 157.024 82.096 156.384 73.776C156 68.912 155.872 64.176 156.128 59.44C156.256 56.88 155.36 54.448 153.44 52.528C150.496 49.072 148.832 45.232 147.936 40.88C147.424 38.192 147.552 35.76 148.448 33.072C149.088 31.408 150.112 28.464 151.776 24.496L153.44 26.16L159.84 32.048ZM323.168 9.77599C328.16 11.568 332.384 14.512 335.456 18.352C336.48 19.504 336.992 20.656 336.992 21.552C340.96 20.912 347.616 20.144 356.96 18.992C358.112 16.048 358.88 13.232 359.264 10.672C359.648 9.392 359.648 8.24 359.008 7.216L357.984 4.656L362.72 2.09599C364.256 1.328 365.792 1.2 367.712 1.84C371.552 3.37599 374.752 5.808 377.312 8.88C378.976 10.928 379.232 13.104 378.08 15.792L377.312 17.328C378.72 17.2 381.28 16.944 385.248 16.56C386.656 16.048 388.064 16.432 389.216 17.456C390.88 18.608 392.288 20.016 393.952 21.808C394.848 22.704 394.976 23.856 394.208 25.136L392.16 27.44C391.392 28.336 390.368 28.592 388.96 28.336C381.536 27.824 375.008 27.824 368.864 28.208C362.336 34.736 355.296 39.344 348 42.288C348 38.832 347.36 37.936 346.208 39.472C348.896 35.76 350.944 32.432 352.608 29.232C347.36 29.488 342.368 30.256 337.76 31.408C337.632 33.712 337.12 36.016 336.096 38.064C334.944 40.368 333.152 41.904 330.848 42.672C328.288 41.264 326.368 39.344 324.704 36.784C324.192 36.144 323.808 35.248 323.424 34.352L317.664 35.632C316.384 36.016 314.848 36.016 313.312 35.632L303.84 33.2H303.072C302.432 32.304 302.304 31.408 302.56 30.768L302.816 29.872C303.456 28.336 304.48 27.568 305.76 27.568C311.52 26.288 316.768 25.264 321.504 24.368C321.376 22.96 321.76 21.68 322.4 20.016C323.68 16.816 323.936 13.488 323.168 9.77599ZM299.616 58.288L307.68 55.728C309.472 55.088 311.136 55.088 312.544 55.728C315.36 56.88 317.536 58.544 319.328 60.72C319.968 61.744 320.096 62.896 319.456 64.048C318.048 66.224 316.768 68.016 315.36 69.296C308.96 75.312 304.864 82.096 302.816 89.776C309.088 85.936 315.36 82.48 321.504 79.664C321.632 72.496 322.272 65.584 323.168 59.056C323.296 57.392 322.912 55.984 322.016 54.832L319.968 52.016C319.328 51.12 319.2 50.352 319.584 49.712C319.712 48.816 320.224 48.304 320.992 48.048L325.344 44.336C326.624 43.312 327.904 43.056 329.568 43.824C334.304 46.384 338.528 49.584 342.112 53.68C343.52 55.472 343.776 57.392 342.88 59.312C339.68 64.944 337.76 70.576 336.864 76.336C343.52 73.264 351.072 70.448 359.648 67.888L359.904 61.616C360.032 58.8 359.52 55.856 358.112 53.296L355.68 49.584C355.168 48.304 355.168 47.024 355.68 45.744C357.088 43.696 358.88 41.52 361.184 38.96C362.464 37.68 363.872 37.424 365.408 37.936C370.784 39.6 375.392 42.544 379.104 46.384C380.768 47.792 381.152 49.456 380.384 51.632C379.36 55.216 378.72 58.16 378.464 60.464L387.552 57.392C389.472 56.752 391.136 56.752 392.544 57.392C395.488 58.928 397.792 60.72 399.968 62.896C400.864 63.664 401.12 64.688 400.864 65.84L400.352 68.656C399.968 70.192 398.944 71.088 397.28 71.344C391.008 72.624 383.328 74.672 374.624 77.232C372.96 85.168 370.656 92.336 367.84 99.12C375.904 97.712 383.84 95.92 391.392 93.744C392.672 93.104 394.208 93.104 395.616 93.744C401.504 96.176 406.496 99.504 410.72 103.984C411.872 104.88 412.256 106.288 411.616 107.824C410.464 109.744 408.928 111.792 407.392 113.84C405.728 115.376 404.064 115.76 402.272 114.864C397.28 113.2 394.208 112.176 392.928 111.792C388.32 110.128 383.584 109.488 378.464 109.744C369.888 110.128 361.312 111.664 353.248 113.968C351.968 114.352 350.688 114.224 349.28 113.84L344.288 112.432C342.752 112.048 341.984 111.024 342.368 109.488L342.496 106.544L344.032 103.984L351.328 102.448C354.272 95.408 356.448 88.368 357.856 81.2C356.32 81.84 354.528 81.968 352.352 81.712C346.976 80.944 341.6 80.688 336.48 80.944C335.712 90.672 335.456 100.912 335.712 111.536C335.712 113.072 335.328 114.608 334.432 115.76L331.232 119.728C330.08 121.392 328.544 121.52 327.008 120.368C324.576 118.448 322.528 116.4 320.736 113.968C319.584 112.688 319.456 111.408 320.224 109.872C320.736 108.208 320.992 106.288 320.864 103.984L320.992 91.312C313.312 97.712 306.912 103.6 301.536 108.976C301.152 109.488 300.512 109.744 299.616 109.744C298.976 109.744 298.464 109.488 297.824 108.976C294.752 105.392 292.704 101.424 291.68 96.816C291.04 95.28 291.424 93.872 292.96 92.72C294.624 91.184 296.032 89.264 297.44 87.088C301.28 81.2 304.352 74.672 306.656 67.376C307.04 66.48 306.656 65.712 305.76 65.328C302.816 63.792 300.896 61.36 299.616 58.288Z" fill="white"/>
</svg>
